<?xml version="1.0" standalone="no"?>
<!DOCTYPE svg PUBLIC "-//W3C//DTD SVG 20010904//EN"
 "http://www.w3.org/TR/2001/REC-SVG-20010904/DTD/svg10.dtd">
<svg version="1.0" xmlns="http://www.w3.org/2000/svg"
 width="700.000000pt" height="700.000000pt" viewBox="0 0 700.000000 700.000000"
 preserveAspectRatio="xMidYMid meet">
<metadata>
Created by potrace 1.11, written by Peter Selinger 2001-2013
</metadata>
<g transform="translate(0.000000,700.000000) scale(0.100000,-0.100000)"
fill="#000000" stroke="none">
<path d="M4545 6600 c-4 -6 -10 -8 -14 -6 -4 3 -7 -8 -6 -24 0 -16 2 -28 5
-27 3 1 7 -2 8 -8 8 -23 37 -65 45 -65 4 0 5 -5 1 -12 -4 -7 -3 -8 5 -4 6 4 9
11 6 16 -3 4 2 10 9 13 10 4 14 -1 13 -14 -1 -10 -4 -19 -8 -19 -4 0 -10 -7
-13 -16 -3 -8 -2 -13 3 -10 5 3 11 -1 15 -9 3 -10 -1 -15 -12 -15 -11 0 -7 -5
12 -15 23 -12 32 -13 44 -3 13 11 15 10 9 -5 -4 -10 -7 -20 -7 -23 0 -2 -8 -1
-17 2 -14 4 -15 3 -5 -4 8 -5 13 -12 13 -16 -3 -22 0 -36 9 -36 7 0 7 6 0 19
-6 12 -6 22 -1 25 5 4 11 0 14 -6 3 -10 10 -8 23 5 19 18 18 19 -5 38 -13 10
-19 19 -14 19 6 0 18 -9 29 -21 19 -21 18 -21 -9 -45 -16 -13 -25 -24 -21 -24
4 0 16 8 27 18 11 9 18 12 14 6 -3 -6 0 -11 8 -11 8 0 12 3 10 7 -2 3 9 6 25
6 18 0 26 -4 23 -10 -4 -6 1 -5 10 3 9 7 17 10 17 6 0 -5 9 0 19 9 14 13 21
14 27 5 4 -7 3 -10 -3 -6 -17 10 -39 -21 -25 -35 9 -9 16 -7 30 5 10 9 23 17
28 17 5 0 3 -4 -4 -9 -11 -7 -10 -9 3 -14 10 -5 14 -3 9 5 -5 7 -3 8 6 3 9 -6
11 -4 5 6 -8 12 -6 12 8 0 15 -12 17 -11 17 3 0 10 -4 15 -9 11 -5 -3 -12 -1
-16 4 -3 6 -13 7 -22 4 -12 -5 -14 -3 -8 7 5 9 4 11 -3 6 -7 -4 -12 -2 -12 3
0 6 -6 11 -14 11 -8 0 -17 7 -20 16 -3 8 -10 13 -15 10 -4 -3 -16 3 -26 14
-10 11 -21 17 -26 15 -4 -3 -10 -1 -13 4 -3 5 -19 7 -34 6 -19 -1 -33 4 -41
16 -6 11 -8 19 -4 19 5 0 9 15 10 34 1 26 -5 40 -27 60 -19 16 -36 23 -46 19
-13 -5 -15 -3 -9 7 5 8 4 11 -3 6 -5 -3 -13 0 -15 6 -4 10 -6 10 -6 1 -1 -7
-6 -13 -12 -13 -5 0 -7 5 -4 10 3 6 4 10 1 10 -3 0 -8 -5 -11 -10z m45 -21 c3
-1 12 -2 20 -3 14 -1 25 -46 10 -46 -15 0 -19 14 -7 29 10 14 10 14 -5 3 -13
-10 -17 -10 -22 0 -3 7 -3 -2 0 -20 l4 -33 -30 31 c-17 17 -28 35 -26 39 5 7
42 7 56 0z m75 -67 c-2 -15 -4 -31 -6 -37 -2 -5 2 -20 9 -31 8 -16 19 -21 42
-19 17 1 33 -1 36 -6 3 -5 9 -7 13 -4 5 2 16 -4 26 -15 10 -11 22 -17 28 -13
6 3 7 1 3 -5 -4 -7 -2 -12 4 -12 7 0 10 -6 8 -12 -3 -8 -25 -13 -55 -13 -32 0
-49 3 -47 10 3 6 -7 22 -21 35 -24 22 -26 23 -44 6 -25 -23 -41 -13 -35 20 3
19 1 24 -8 18 -10 -6 -10 -4 -2 7 15 21 12 55 -6 51 -8 -2 -19 -4 -23 -5 -5
-1 -16 8 -24 21 -9 12 -11 22 -5 22 6 0 14 -10 18 -22 6 -19 7 -19 16 -5 5 10
6 23 3 30 -4 6 0 4 8 -6 12 -14 17 -15 23 -5 5 7 9 16 10 21 1 4 2 10 3 13 0
4 7 1 15 -5 7 -6 12 -24 11 -39z m30 -162 c-5 -8 -11 -8 -17 -2 -6 6 -7 16 -3
22 5 8 11 8 17 2 6 -6 7 -16 3 -22z m161 -29 c-9 -8 -18 -12 -22 -9 -9 10 3
25 21 25 14 0 14 -2 1 -16z"/>
<path d="M4547 6564 c7 -20 29 -23 29 -5 0 9 -8 17 -17 17 -9 0 -15 -6 -12
-12z"/>
<path d="M4643 6543 c4 -6 0 -16 -8 -23 -10 -9 -12 -16 -5 -25 5 -6 8 -21 5
-34 -2 -12 0 -19 6 -16 13 9 11 -9 -3 -23 -9 -9 -9 -12 3 -12 12 0 12 -2 -1
-10 -8 -5 -10 -10 -4 -10 24 0 36 27 23 52 -7 13 -12 28 -10 33 9 26 8 66 -2
72 -5 3 -7 1 -4 -4z m4 -38 c0 -8 -4 -12 -9 -9 -5 3 -6 10 -3 15 9 13 12 11
12 -6z"/>
<path d="M4718 6385 c15 -17 29 -27 30 -23 2 4 9 5 15 1 7 -4 22 -8 35 -9 23
-1 23 -1 -4 27 -15 15 -30 28 -33 27 -3 0 -8 1 -11 2 -3 1 -17 3 -32 4 l-27 3
27 -32z m32 15 c3 -1 8 -2 11 -2 4 1 14 -7 24 -18 16 -17 16 -18 -2 -15 -10 2
-20 4 -23 5 -3 1 -8 2 -11 2 -4 -1 -14 7 -24 18 -16 17 -16 18 2 15 10 -2 20
-4 23 -5z"/>
<path d="M5167 6544 c-3 -3 -3 -13 0 -22 5 -11 3 -13 -7 -7 -10 6 -11 4 -4 -6
12 -19 12 -33 -1 -41 -6 -5 -5 -8 3 -8 9 0 10 -5 2 -19 -14 -26 -13 -32 4 -29
8 2 15 -1 15 -7 0 -5 -7 -9 -15 -7 -18 4 -18 -12 1 -28 8 -7 15 -9 15 -5 0 4
6 2 14 -4 10 -9 17 -7 27 6 9 11 10 14 2 9 -8 -4 -13 -2 -13 4 0 7 -7 10 -17
6 -15 -5 -15 -4 1 9 14 10 22 12 27 4 4 -7 8 -5 12 4 3 9 -5 27 -19 43 -16 17
-20 24 -9 20 10 -3 14 -2 9 5 -3 6 3 5 15 -3 12 -7 17 -14 11 -16 -15 -5 -12
-19 6 -26 9 -3 12 -2 9 5 -4 5 -1 17 7 26 10 14 10 15 0 9 -9 -6 -12 -3 -10
10 2 10 -2 19 -9 19 -6 0 -14 3 -18 7 -4 4 -13 4 -20 2 -10 -4 -12 1 -9 18 4
21 4 21 -5 3 -7 -15 -10 -16 -11 -5 -2 8 -2 18 -1 23 1 9 -4 9 -12 1z m42 -50
c5 4 12 2 16 -4 4 -6 11 -7 17 -4 7 5 8 2 3 -5 -5 -9 -10 -10 -18 -2 -7 7 -16
7 -30 -1 -17 -9 -18 -12 -6 -22 8 -6 19 -18 26 -26 10 -13 8 -16 -8 -17 -14
-1 -19 3 -15 13 5 12 2 12 -15 3 -18 -9 -19 -8 -11 8 5 10 8 30 7 45 -1 22 1
26 11 17 7 -6 18 -8 23 -5z"/>
<path d="M2057 6403 c-4 -3 -2 -11 3 -18 7 -8 2 -12 -20 -12 -26 0 -28 3 -17
16 11 14 10 14 -5 2 -10 -7 -16 -17 -13 -21 3 -5 1 -11 -4 -14 -5 -3 -12 1
-15 10 -5 12 -10 14 -20 5 -7 -6 -16 -8 -19 -4 -4 3 -13 0 -21 -6 -8 -7 -20
-10 -26 -6 -5 3 -10 -2 -10 -11 0 -14 -3 -15 -12 -6 -18 18 -30 14 -23 -8 5
-15 3 -18 -9 -14 -9 3 -13 11 -9 18 3 6 2 7 -3 3 -5 -5 -10 -13 -10 -18 -1 -5
-2 -14 -3 -20 0 -5 -5 -8 -11 -4 -5 3 -8 11 -6 18 1 7 1 9 -1 4 -3 -4 -9 -5
-13 -2 -5 3 -12 0 -16 -6 -4 -8 -3 -9 4 -5 7 4 12 3 12 -1 0 -5 -22 -8 -50 -8
-27 0 -50 3 -50 7 0 11 -23 5 -32 -7 -5 -7 -8 -6 -8 0 0 6 -9 11 -20 12 -11 1
-18 -2 -16 -6 3 -4 -198 -9 -446 -10 -249 -1 -454 -3 -455 -5 -2 -1 -3 -467
-3 -1035 -1 -807 -3 -1030 -13 -1024 -8 5 -8 2 1 -9 16 -19 14 -118 -2 -118
-6 0 -5 -4 3 -9 9 -6 10 -11 2 -15 -6 -4 -11 -12 -11 -17 0 -6 4 -7 10 -4 5 3
7 0 4 -9 -3 -9 -12 -12 -22 -9 -10 4 -7 -3 8 -16 14 -12 19 -20 12 -16 -6 3
-12 2 -12 -4 0 -5 6 -12 13 -14 9 -4 8 -8 -3 -16 -8 -6 -10 -11 -5 -11 6 0 11
-9 12 -20 1 -13 -2 -18 -10 -13 -9 5 -9 3 -1 -8 8 -9 12 -87 13 -242 0 -203
-1 -228 -15 -223 -9 3 -18 6 -20 6 -3 0 0 10 7 21 6 12 7 19 1 15 -12 -7 -25
22 -15 36 3 6 1 8 -5 4 -5 -3 -12 -1 -14 6 -3 7 -7 5 -11 -6 -4 -9 -3 -15 2
-12 5 3 11 -1 15 -9 3 -8 0 -17 -6 -21 -7 -4 -8 -3 -4 4 7 12 -4 16 -34 13
-13 -2 -13 -1 0 8 12 9 12 11 -2 16 -9 4 -19 17 -22 30 -6 22 -36 44 -36 25 0
-6 4 -10 9 -10 5 0 12 -8 16 -17 5 -15 4 -16 -6 -5 -7 6 -17 12 -23 12 -5 0
-6 -3 -3 -7 4 -3 -2 -13 -13 -20 -11 -8 -18 -19 -15 -24 4 -5 13 -2 22 6 8 9
23 15 32 13 22 -4 21 -32 -2 -34 -12 -1 -13 -1 -2 3 19 6 20 23 1 23 -8 0 -24
-13 -36 -30 -12 -16 -17 -30 -11 -30 5 0 13 5 16 10 3 6 10 10 16 10 5 0 -1
-10 -12 -21 -17 -17 -23 -19 -30 -8 -4 8 -4 18 1 23 17 17 11 29 -7 15 -16
-13 -17 -12 -4 4 7 9 10 17 6 17 -3 0 3 12 14 26 25 31 27 46 6 38 -11 -5 -14
-2 -9 12 9 24 0 16 -16 -15 -11 -22 -11 -23 6 -17 18 6 18 5 1 -8 -15 -11 -19
-30 -20 -93 -2 -71 0 -78 17 -78 11 0 21 -7 23 -15 4 -12 3 -12 -5 -1 -5 7
-12 9 -15 4 -3 -5 3 -17 14 -26 10 -9 19 -14 19 -11 0 4 6 1 13 -5 8 -6 17 -8
20 -4 4 3 7 1 7 -5 0 -7 7 -12 15 -12 8 0 22 -11 32 -25 39 -55 53 -69 53 -53
0 9 6 21 13 27 10 8 14 7 14 -4 0 -8 -4 -12 -8 -9 -4 2 -7 -5 -6 -16 1 -11 5
-20 9 -20 4 0 7 -268 6 -596 -1 -590 -3 -631 -33 -644 -12 -6 -15 -54 -4 -72
7 -10 10 -10 21 1 11 12 10 12 -2 6 -13 -8 -13 -7 -1 9 11 13 11 16 1 14 -7
-2 -15 3 -18 11 -2 8 0 11 6 7 6 -3 14 -1 18 5 5 8 3 9 -7 4 -11 -7 -11 -5 1
11 8 10 15 20 15 21 1 2 2 -209 3 -467 2 -327 -1 -470 -9 -470 -5 0 -8 4 -4 9
3 5 0 13 -6 17 -7 4 -9 3 -6 -3 9 -14 -38 -34 -60 -26 -11 4 -14 3 -9 -5 4 -7
15 -12 24 -12 15 -1 14 -3 -3 -17 -18 -14 -18 -15 -2 -9 13 4 17 2 14 -6 -2
-7 -9 -12 -15 -11 -5 1 -13 -4 -16 -12 -6 -17 9 -21 19 -5 4 6 11 8 16 4 16
-10 0 -22 -26 -19 -14 1 -37 13 -50 25 l-25 23 13 -26 c6 -15 15 -27 20 -27 4
0 7 -5 7 -10 0 -6 -8 -5 -19 2 -11 7 -18 15 -15 19 8 13 -13 19 -23 6 -12 -17
-16 -67 -5 -67 5 0 15 -13 22 -29 7 -19 17 -28 26 -24 8 3 14 0 14 -6 0 -6 -4
-11 -10 -11 -17 0 -11 -29 9 -49 11 -11 17 -22 14 -24 -7 -7 28 -58 36 -53 4
3 7 -4 7 -15 0 -19 -1 -19 -13 -3 -7 10 -13 16 -14 13 0 -2 -3 -15 -6 -29 -10
-45 -8 -65 5 -63 6 2 12 -2 12 -8 0 -6 -7 -8 -16 -5 -12 4 -15 0 -13 -17 2
-12 0 -28 -5 -36 -7 -10 -3 -12 15 -6 17 4 20 3 10 -3 -21 -15 -23 -72 -2 -73
14 0 14 -1 1 -7 -19 -9 -24 -30 -10 -47 7 -9 6 -16 -7 -26 -15 -12 -16 -12 -9
6 5 14 4 17 -4 9 -12 -12 -3 -44 12 -44 5 0 6 5 2 11 -4 7 -1 10 7 7 8 -3 13
-14 11 -24 -2 -16 -1 -17 8 -4 9 13 11 13 21 0 8 -12 9 -9 3 10 -6 23 -6 24
11 10 11 -9 16 -10 11 -2 -4 6 -3 12 2 12 6 0 13 -7 16 -16 9 -22 8 -24 -9
-18 -8 4 -15 1 -15 -4 0 -20 15 -20 39 -1 16 13 19 19 8 19 -8 0 -18 7 -21 16
-3 9 -13 14 -21 11 -10 -4 -12 -1 -9 11 4 11 0 9 -13 -6 -10 -13 -22 -20 -26
-16 -12 12 -8 26 6 18 6 -4 4 2 -6 14 -19 21 -16 43 6 41 9 0 9 -2 0 -6 -10
-3 -10 -10 -2 -24 8 -15 14 -18 23 -10 10 8 17 7 26 -4 7 -8 16 -12 21 -9 5 3
9 2 8 -3 -3 -20 2 -27 11 -13 8 13 10 12 10 -2 0 -20 20 -25 20 -5 0 6 5 4 11
-6 5 -9 15 -17 21 -17 6 0 5 7 -3 17 -13 16 -13 16 11 0 27 -19 44 -22 35 -7
-4 6 1 7 10 3 10 -3 21 0 26 8 6 9 9 10 9 2 0 -6 9 -11 20 -10 13 1 19 6 15
15 -2 7 0 10 5 7 17 -11 71 5 64 18 -5 8 -2 8 7 0 18 -18 34 -16 20 1 -10 11
-9 14 1 12 16 -2 20 -15 12 -38 -6 -19 -34 -25 -34 -7 0 5 5 7 12 3 7 -5 8 -3
3 6 -6 10 -11 9 -22 -5 -10 -14 -13 -15 -13 -4 -1 9 -5 7 -13 -6 -7 -11 -22
-21 -35 -22 -15 -2 -21 1 -16 8 4 8 1 8 -13 1 -10 -6 -27 -10 -37 -9 -26 3
-31 -19 -6 -26 11 -3 18 -1 14 4 -8 13 10 11 26 -3 12 -11 12 -10 1 5 -15 19
-2 24 17 5 9 -9 12 -9 12 0 0 8 11 11 33 8 17 -3 26 -3 20 0 -18 8 -16 21 2
21 8 0 15 -4 15 -9 0 -5 8 -5 18 0 9 5 23 7 31 4 8 -2 21 4 29 14 14 18 14 18
10 -2 -4 -13 0 -21 9 -21 8 0 11 7 8 17 -3 10 2 23 11 31 15 12 16 11 10 -8
-4 -12 -2 -24 3 -28 7 -3 8 0 5 9 -3 9 -2 16 4 16 6 0 13 -6 15 -12 3 -7 4 1
2 17 -1 17 3 34 9 38 7 6 6 7 -4 4 -8 -2 -14 -10 -13 -16 2 -6 -2 -11 -7 -11
-6 0 -10 5 -10 11 0 6 -9 1 -20 -12 -10 -13 -19 -19 -20 -14 0 6 6 17 12 25
11 12 10 12 -7 0 -11 -8 -17 -10 -13 -6 4 5 2 16 -5 25 -10 13 -10 14 3 5 21
-14 46 -11 42 6 -3 11 0 11 12 0 10 -8 16 -9 16 -2 0 6 7 9 15 6 8 -4 15 -1
15 5 0 6 5 11 11 11 6 0 8 -7 5 -16 -3 -8 -2 -12 4 -9 6 3 10 15 10 27 0 14 5
18 16 14 12 -5 15 -2 11 13 -3 12 1 18 12 17 8 0 16 6 16 14 0 9 8 14 20 12
17 -2 17 -1 5 8 -12 8 -13 12 -2 19 8 4 14 12 15 17 1 5 6 8 10 6 5 -1 6 7 2
18 -4 11 -2 20 4 20 6 0 11 9 11 19 0 11 9 23 20 26 21 7 26 24 12 41 -4 5 0
2 9 -8 18 -19 31 -14 22 8 -3 8 -1 14 5 14 15 0 82 -81 76 -92 -3 -5 0 -7 7
-6 6 2 14 -3 17 -11 3 -9 0 -11 -9 -6 -8 5 -11 5 -7 0 4 -4 3 -17 -3 -29 -9
-17 -7 -17 11 4 17 19 20 21 16 6 -5 -14 -3 -16 6 -9 7 6 21 9 31 8 9 -2 15 1
11 6 -3 5 -11 6 -17 2 -7 -4 -6 0 2 10 14 17 26 24 17 9 -3 -5 12 -17 32 -27
35 -18 43 -21 60 -24 4 -1 0 -6 -8 -11 -8 -5 -10 -10 -4 -10 13 0 13 -62 -1
-73 -6 -5 -3 -7 8 -3 20 6 47 -2 47 -16 0 -5 -5 -6 -11 -2 -7 4 -10 1 -7 -7 3
-8 11 -13 17 -11 7 1 10 -2 6 -8 -3 -6 -11 -8 -16 -5 -5 4 -9 1 -9 -4 0 -6 4
-11 9 -11 12 0 32 26 25 32 -3 3 7 8 21 12 24 6 37 29 13 23 -6 -1 -13 7 -15
18 l-3 20 9 -20 c5 -11 10 -16 10 -11 1 5 7 3 15 -3 11 -9 15 -8 20 4 3 9 10
14 15 11 5 -3 11 4 14 15 4 15 11 20 21 16 9 -4 16 -2 16 4 0 6 6 7 13 4 6 -4
3 1 -7 9 -11 9 -17 18 -15 21 3 3 16 -5 28 -16 20 -19 22 -19 19 -3 -2 11 4
20 15 22 9 2 17 -2 17 -8 0 -6 -5 -8 -12 -4 -7 5 -8 3 -3 -6 6 -10 11 -9 22 5
7 11 13 23 13 28 0 4 4 6 9 3 5 -3 14 0 20 8 9 10 8 16 -4 26 -10 9 -15 9 -15
1 0 -6 5 -11 11 -11 5 0 7 -5 4 -10 -5 -8 -11 -8 -20 0 -7 6 -20 8 -29 4 -12
-5 -15 -2 -10 10 3 9 1 16 -4 16 -11 0 -28 -38 -24 -53 1 -4 -3 -7 -9 -7 -7 0
-8 7 -4 18 25 60 26 110 3 96 -5 -3 -8 2 -6 11 2 10 -3 20 -11 23 -10 3 -12 0
-8 -11 4 -10 -1 -21 -11 -27 -14 -9 -13 -10 7 -4 15 4 21 2 17 -4 -3 -6 -2
-13 2 -16 13 -8 2 -52 -17 -70 -12 -11 -20 -12 -31 -5 -13 9 -12 10 2 5 10 -3
20 -1 23 4 4 6 1 10 -4 10 -17 0 -13 31 7 47 16 13 15 14 -6 9 -29 -6 -52 2
-52 17 0 7 4 7 12 -1 17 -17 33 -15 18 3 -7 8 -9 15 -4 15 5 0 2 5 -6 10 -11
7 -11 10 -2 10 7 0 10 4 7 10 -3 5 -1 10 5 10 6 0 8 -11 6 -25 -3 -15 -1 -23
5 -20 5 4 7 10 4 15 -9 15 20 28 60 26 31 -1 42 -6 50 -24 5 -12 18 -25 28
-28 9 -3 15 -9 12 -14 -3 -5 -1 -11 5 -15 6 -4 8 -10 5 -15 -3 -5 0 -12 6 -16
7 -4 9 -3 5 4 -3 6 -2 13 4 17 6 4 7 11 4 17 -4 6 -3 8 2 5 15 -9 37 9 41 32
2 18 1 18 -22 -5 -23 -23 -53 -25 -39 -3 3 5 9 7 14 4 5 -3 12 0 16 6 3 6 0
15 -7 20 -24 15 -34 10 -13 -7 10 -8 13 -13 6 -9 -7 4 -19 2 -27 -5 -10 -8
-15 -8 -21 1 -4 7 -3 9 4 5 6 -3 13 -2 17 4 3 5 -3 10 -14 10 -12 0 -21 4 -21
9 0 10 205 9 216 -2 10 -10 26 -9 20 2 -7 10 20 9 30 -2 4 -3 15 -2 26 4 14 7
22 6 34 -6 19 -19 25 -19 18 -1 -4 10 3 13 23 12 15 -1 33 -5 40 -9 6 -4 14
-1 17 5 3 7 3 2 0 -12 -5 -24 -4 -24 8 -5 19 29 49 32 45 4 -1 -12 4 -24 13
-26 12 -4 12 -3 1 5 -9 7 -10 12 -2 16 6 4 8 13 4 19 -5 9 -3 9 8 0 8 -7 20
-8 28 -4 7 5 190 9 407 10 310 1 394 -2 394 -11 0 -9 3 -10 8 -2 5 8 87 11
264 11 280 1 286 -1 245 -54 -20 -26 -20 -27 -1 -11 25 22 41 24 24 4 -10 -13
-8 -13 14 -3 14 7 26 15 26 19 0 4 7 5 16 1 12 -5 13 -7 2 -14 -11 -7 -11 -10
0 -21 11 -11 13 -10 10 1 -2 7 3 16 10 18 6 3 12 -3 12 -12 0 -11 5 -15 15
-11 15 5 17 -17 2 -40 -7 -13 1 -24 17 -24 6 0 5 4 -3 9 -9 6 -10 11 -3 15 6
4 16 -3 22 -14 9 -17 14 -19 26 -9 8 6 18 8 22 4 4 -4 1 -10 -5 -12 -7 -3 -13
-9 -13 -14 0 -6 5 -7 12 -3 8 5 9 1 5 -12 -7 -18 -6 -18 7 -1 12 16 15 16 29
2 20 -19 33 -20 17 0 -7 8 -9 15 -5 15 5 0 0 9 -10 20 -10 11 -14 20 -8 20 16
0 44 -36 36 -45 -5 -4 -2 -5 5 -1 15 9 -15 55 -37 56 -11 0 -11 3 0 17 8 10 9
14 2 10 -8 -5 -11 0 -10 13 1 11 6 20 11 20 6 0 0 7 -12 16 -21 15 -22 17 -7
28 23 17 247 20 257 3 6 -9 8 -9 8 0 0 8 25 12 76 12 67 0 75 -2 70 -17 -6
-16 -5 -16 8 1 15 20 56 23 75 4 11 -9 13 -9 7 1 -5 7 -1 12 9 12 14 0 16 -5
9 -27 -4 -16 -8 -43 -8 -60 0 -30 -7 -38 -29 -34 -5 1 -6 -3 -2 -9 4 -7 12 -7
26 0 16 9 19 7 19 -9 0 -11 4 -22 9 -25 11 -7 2 34 -12 54 -9 12 -9 13 3 3 17
-15 34 -17 25 -3 -3 6 -1 10 4 10 14 0 14 -13 -1 -28 -9 -9 -9 -12 0 -12 7 0
12 5 12 11 0 6 7 8 16 5 8 -3 12 -2 9 4 -8 13 25 28 55 24 14 -1 19 0 12 2 -6
3 -9 10 -6 15 4 6 11 6 19 -1 9 -8 12 -5 10 14 -2 14 -6 30 -10 35 -3 6 -1 11
4 11 6 0 11 -7 11 -16 0 -8 5 -12 10 -9 6 3 10 2 10 -4 0 -5 -4 -11 -10 -13
-6 -2 -6 -8 0 -18 8 -13 10 -13 10 2 0 9 6 20 13 24 6 4 9 4 5 0 -4 -5 -2 -14
5 -20 9 -10 16 -7 35 13 l25 26 -8 -25 -8 -25 22 20 22 19 -11 -29 c-9 -26 -8
-28 3 -13 8 10 16 15 20 12 3 -3 13 -7 24 -8 10 -2 18 -8 18 -14 0 -6 4 -14 9
-19 5 -5 6 -3 2 5 -4 6 -3 12 2 12 15 0 33 -26 24 -35 -4 -5 -1 -5 6 -1 7 5
12 1 12 -9 0 -11 5 -15 15 -12 8 4 17 2 20 -3 4 -6 2 -10 -3 -10 -6 0 -13 -8
-17 -17 -5 -14 -3 -15 6 -6 12 12 42 6 34 -7 -2 -4 7 -6 20 -4 14 1 25 -2 25
-7 0 -6 -6 -9 -12 -7 -7 2 -13 -2 -13 -7 0 -12 28 -7 37 8 3 5 4 16 1 24 -6
16 9 17 24 2 8 -8 13 -8 17 0 4 6 2 11 -3 11 -6 0 -11 5 -11 12 0 8 6 6 17 -5
18 -18 15 -27 -13 -31 -20 -3 -28 -33 -11 -43 7 -3 9 -3 5 2 -4 4 -3 14 3 22
10 11 15 11 27 1 11 -9 14 -9 9 -1 -4 6 -4 14 1 17 4 2 8 -5 9 -17 0 -12 4
-31 8 -42 8 -20 8 -20 -11 0 -10 11 -16 16 -11 11 4 -6 7 -18 7 -29 0 -11 4
-15 12 -11 7 5 8 3 2 -7 -13 -21 -12 -32 5 -53 12 -15 13 -17 2 -11 -10 6 -13
4 -9 -7 4 -8 2 -21 -2 -29 -5 -8 -4 -19 2 -26 8 -11 7 -12 -8 -8 -10 4 -6 -1
9 -10 26 -15 29 -15 57 5 17 12 30 18 30 13 0 -4 4 -2 9 5 5 8 17 11 34 7 22
-6 27 -14 33 -51 3 -25 4 -48 1 -51 -4 -3 10 -14 30 -24 l37 -19 51 53 c59 59
80 77 94 77 6 0 15 8 20 18 6 9 11 14 11 10 0 -3 20 0 44 7 24 7 48 10 52 5 5
-5 29 -2 53 7 29 9 58 13 80 8 20 -4 43 -8 51 -9 9 -1 21 -5 28 -10 6 -4 12
-2 12 3 0 6 -5 11 -10 11 -6 0 -9 4 -8 9 2 5 -1 9 -7 9 -5 0 -9 -4 -7 -9 1 -5
-3 -9 -9 -9 -6 0 -8 9 -4 21 5 16 4 19 -5 14 -8 -5 -11 -4 -6 3 4 6 13 9 20 6
8 -3 16 -1 20 4 3 5 -8 8 -24 7 -16 -1 -27 2 -24 7 3 4 0 8 -6 8 -7 0 -6 5 2
14 7 8 18 11 23 8 6 -3 5 1 -1 9 -10 13 -13 24 -15 62 0 19 6 46 14 53 4 4 7
16 7 26 0 10 4 18 9 18 11 0 11 49 0 56 -5 3 -7 -1 -4 -8 3 -8 -4 -14 -20 -14
-14 -1 -25 2 -25 8 0 5 -6 6 -12 2 -10 -6 -10 -4 0 7 17 19 15 34 -4 19 -8 -8
-14 -9 -13 -4 4 21 -2 28 -11 14 -9 -13 -10 -13 -10 0 0 35 32 39 306 39 148
0 274 0 279 1 6 0 9 44 8 117 -2 80 1 121 10 132 7 9 7 12 1 8 -6 -3 -4 9 5
28 9 19 20 34 24 35 5 0 5 -6 1 -13 -4 -6 -3 -8 1 -4 12 10 15 38 4 31 -5 -3
-9 0 -9 6 0 6 -9 21 -20 32 -18 19 -18 23 -5 31 8 4 19 6 24 2 5 -3 12 -1 16
5 3 5 1 10 -4 10 -6 0 -11 5 -11 11 0 8 4 8 15 -1 12 -10 12 -15 -1 -35 -15
-23 -12 -45 6 -45 4 0 6 10 2 22 -3 13 -1 19 5 15 6 -4 17 0 24 9 12 14 9 19
-15 39 -23 19 -25 23 -11 28 10 5 14 3 9 -5 -4 -7 -3 -8 4 -4 7 4 12 2 12 -5
0 -7 3 -10 6 -7 10 10 -16 48 -32 48 -9 0 -12 -5 -8 -12 4 -7 3 -8 -4 -4 -7 4
-12 2 -12 -3 0 -18 -14 -12 -29 12 -13 20 -13 21 3 8 14 -12 19 -12 34 1 9 9
23 14 30 12 7 -1 8 0 3 2 -6 3 -13 5 -17 4 -4 -1 -11 4 -16 12 -7 10 -8 9 -4
-4 3 -11 0 -18 -8 -18 -7 0 -20 8 -27 18 -13 15 -12 16 4 3 15 -12 17 -12 11
3 -3 9 -10 16 -14 16 -4 0 -7 32 -7 70 0 50 4 69 12 66 8 -3 10 4 7 20 -2 14
0 24 7 24 7 0 10 -4 7 -8 -2 -4 0 -14 5 -22 9 -13 10 -13 8 0 -3 28 1 41 10
35 5 -3 13 0 17 6 4 8 3 9 -4 5 -13 -8 -17 16 -5 28 11 10 12 66 2 66 -5 0
-13 -10 -20 -22 -9 -17 -9 -20 4 -15 11 4 13 0 10 -14 -5 -19 -6 -19 -20 1 -9
12 -21 19 -30 16 -8 -4 -11 -1 -8 5 4 6 13 8 19 6 7 -3 18 4 25 15 14 22 16
22 -38 0 -9 -3 -12 -1 -7 6 4 7 14 12 22 12 19 0 18 26 -1 34 -8 3 -15 0 -15
-6 0 -6 -3 -9 -6 -5 -3 3 -2 13 4 23 9 15 11 15 29 -3 11 -11 23 -27 25 -34 3
-8 9 -11 13 -7 4 4 -2 17 -14 29 -15 16 -18 26 -10 35 6 7 8 18 5 23 -4 5 -2
12 3 15 13 8 42 -4 35 -15 -3 -5 0 -9 6 -9 6 0 8 -5 4 -13 -5 -7 -1 -7 12 3
10 8 16 10 12 6 -4 -5 1 -17 13 -27 14 -12 16 -18 7 -22 -9 -4 -9 -6 -1 -6 17
-1 27 20 13 29 -9 5 -8 9 3 13 12 4 15 -1 12 -24 -2 -16 -7 -35 -11 -41 -4 -7
-3 -8 4 -4 7 4 12 2 12 -3 0 -6 5 -11 11 -11 5 0 7 5 3 11 -4 8 1 9 16 4 17
-6 21 -4 14 6 -6 10 -3 10 11 -1 17 -14 18 -13 12 2 -3 10 -2 18 2 18 5 0 12
-8 15 -17 6 -14 9 -15 15 -4 6 9 11 10 15 2 4 -6 12 -11 18 -11 6 0 7 5 2 13
-5 7 -2 5 8 -5 17 -19 38 -24 38 -9 0 6 9 8 20 6 14 -3 20 2 20 13 0 10 3 13
8 6 11 -17 40 -24 46 -11 3 8 5 6 5 -3 1 -9 18 -21 41 -28 48 -15 71 -16 50
-2 -9 6 -10 10 -3 10 6 0 11 9 10 20 -1 11 -5 20 -9 20 -4 0 -8 5 -8 11 0 5 5
7 10 4 13 -8 13 10 0 33 -18 32 -38 131 -28 134 6 2 4 11 -6 20 -36 37 -73
122 -71 166 1 23 -2 42 -6 42 -4 0 -5 10 -1 22 4 17 2 20 -11 15 -10 -4 -14
-2 -11 7 3 7 0 25 -6 41 -9 25 -12 26 -28 14 -10 -8 -7 -4 6 9 13 12 20 22 17
22 -3 0 -1 8 4 18 6 12 5 28 -5 50 -12 29 -16 32 -33 22 -12 -6 -18 -16 -15
-25 4 -8 1 -15 -6 -15 -6 0 -8 5 -4 12 4 6 3 8 -4 4 -6 -3 -13 -3 -16 2 -2 4
9 14 25 21 16 7 29 18 29 26 0 14 -30 43 -30 29 0 -5 -5 -1 -11 9 -5 9 -7 22
-3 28 4 8 1 8 -14 0 -12 -6 -23 -7 -26 -2 -6 8 21 26 36 23 9 -2 4 26 -7 35
-4 4 -5 3 -2 -3 8 -13 -14 -34 -40 -39 -10 -2 -19 -4 -20 -5 -2 -2 -7 -3 -13
-4 -5 0 -10 -4 -10 -8 0 -5 0 -13 0 -19 0 -6 8 -1 18 11 17 20 19 21 32 5 12
-15 12 -16 -5 -13 -10 1 -20 -3 -23 -11 -3 -10 2 -11 19 -6 23 7 23 7 6 -12
-17 -19 -17 -21 0 -34 16 -13 17 -12 4 4 -15 19 -2 24 17 5 17 -17 15 -28 -5
-29 -14 0 -13 -2 5 -9 12 -5 22 -16 22 -24 0 -10 6 -13 18 -10 14 5 15 4 2 -5
-9 -6 -18 -7 -24 -1 -15 15 -26 12 -26 -6 0 -8 4 -13 9 -10 5 3 15 -2 22 -12
13 -15 12 -16 -3 -3 -15 11 -18 11 -18 0 0 -9 -3 -10 -8 -4 -9 13 -35 18 -28
6 9 -14 -22 -29 -48 -24 -18 3 -18 2 2 -7 13 -5 28 -8 33 -5 5 4 6 -2 2 -11
-4 -11 -3 -15 4 -11 13 8 11 -19 -2 -30 -4 -4 -5 -3 -2 3 4 7 -1 18 -10 25
-15 12 -16 12 -10 -5 5 -14 3 -17 -8 -13 -8 4 -17 2 -20 -3 -3 -5 3 -11 12
-13 16 -4 16 -5 1 -6 -9 0 -23 8 -31 19 -8 11 -17 17 -20 13 -4 -3 -7 -4 -7 0
0 3 6 12 13 19 12 11 12 16 -1 28 -14 13 -15 12 -9 -3 4 -11 2 -17 -7 -17 -9
0 -12 7 -9 20 4 15 2 19 -10 14 -9 -3 -15 -11 -13 -17 1 -7 1 -9 -1 -4 -3 4
-11 7 -19 7 -8 0 -14 4 -14 8 0 5 -7 9 -15 9 -10 0 -13 -6 -10 -18 3 -9 0 -21
-6 -25 -7 -4 -9 -3 -6 4 9 14 -3 43 -14 36 -5 -3 -7 -10 -4 -15 3 -5 -1 -6
-10 -3 -11 4 -14 2 -9 -9 7 -18 -12 -32 -22 -16 -4 7 -3 9 3 6 6 -4 11 4 11
18 0 16 -5 22 -12 18 -6 -4 -5 0 2 9 10 12 10 17 1 20 -9 3 -9 9 -1 24 8 16 8
24 -1 34 -8 9 -9 11 0 6 6 -3 14 0 17 6 3 7 4 4 3 -7 -1 -11 4 -20 11 -21 6
-1 17 -2 23 -3 5 0 7 -6 4 -11 -3 -6 -1 -10 4 -10 14 0 14 13 0 27 -7 7 -4 10
13 8 13 -1 28 -3 35 -4 7 0 10 -8 7 -16 -6 -14 -8 -14 -18 0 -10 14 -12 14
-12 -4 0 -11 2 -18 5 -16 2 3 11 -1 20 -7 9 -7 13 -9 9 -4 -9 10 9 46 23 46 6
0 6 -8 -1 -21 -7 -11 -9 -23 -6 -27 3 -3 6 -1 6 4 0 5 4 15 9 23 8 12 12 12
25 2 16 -13 40 -6 31 9 -3 5 4 11 15 13 17 4 17 4 -2 3 -13 -1 -22 -7 -21 -14
4 -17 -5 -15 -33 7 -13 10 -20 21 -17 25 3 3 1 6 -4 6 -6 0 -13 -6 -16 -12 -2
-8 -8 -9 -13 -4 -5 5 -4 11 4 13 7 3 18 11 26 18 7 8 17 11 20 7 4 -3 4 2 0
12 -6 16 -8 17 -16 2 -5 -9 -17 -16 -26 -16 -16 1 -16 1 1 11 9 6 15 14 12 20
-4 5 -1 9 5 9 6 0 8 4 5 10 -11 17 -24 11 -20 -10 2 -11 0 -20 -6 -20 -5 0 -7
10 -5 23 3 12 5 26 5 30 1 4 10 3 21 -3 16 -9 22 -8 26 5 10 26 -3 43 -31 40
-21 -3 -24 -1 -14 11 11 13 6 18 -14 15 -5 -1 -6 3 -2 9 5 8 11 8 21 -1 7 -6
11 -16 7 -22 -3 -6 -1 -7 5 -3 9 5 9 13 0 29 -10 21 -10 21 7 7 17 -14 17 -14
7 7 -8 14 -9 24 -2 28 6 4 7 12 4 18 -4 7 -4 9 1 5 4 -4 14 -3 22 3 7 6 13 10
14 8 7 -38 7 -41 -11 -36 -13 3 -17 0 -13 -9 9 -23 42 2 39 30 -2 16 1 23 10
19 7 -2 10 -11 7 -19 -3 -9 1 -14 12 -14 10 0 13 5 9 12 -4 7 -3 8 4 4 6 -4 8
-14 5 -22 -5 -13 -1 -15 15 -10 17 6 21 4 16 -8 -4 -12 0 -16 16 -16 11 0 19
-3 17 -7 -3 -5 2 -15 11 -23 14 -13 15 -12 9 3 -3 9 -2 19 3 22 6 4 10 -5 10
-19 0 -30 11 -38 30 -24 12 8 12 9 -2 4 -19 -6 -23 10 -9 33 7 11 11 10 20 -5
6 -11 11 -13 11 -7 0 7 6 12 13 10 6 -1 11 6 11 16 -2 20 12 23 19 5 3 -7 6
-3 6 10 1 13 5 20 11 17 6 -4 7 -11 4 -17 -4 -7 -2 -8 4 -4 6 4 9 13 5 21 -4
11 -1 13 11 9 13 -5 15 -2 9 12 -6 17 -5 17 11 5 9 -8 16 -10 15 -5 -5 28 2
43 19 37 11 -4 9 1 -8 16 -20 18 -22 24 -10 31 8 6 10 10 4 10 -6 0 -17 -7
-24 -15 -9 -11 -16 -12 -25 -5 -10 8 -15 8 -21 -1 -5 -8 -3 -9 6 -4 8 5 11 4
7 -2 -7 -11 -45 -11 -62 -1 -5 3 -18 4 -28 3 -9 -2 -15 0 -12 5 6 9 24 8 42
-3 9 -6 11 -3 7 8 -4 9 -12 14 -19 11 -7 -2 -18 1 -25 7 -10 9 -11 9 -6 0 4
-8 -1 -11 -14 -10 -22 1 -26 12 -7 21 6 3 3 4 -8 3 -11 -1 -20 4 -20 11 0 6
-3 12 -7 12 -7 0 -10 -5 -7 -12 6 -21 5 -37 -2 -32 -5 3 -7 9 -4 14 3 5 -2 13
-11 18 -12 7 -13 11 -5 17 18 11 -6 34 -29 28 -11 -3 -17 -9 -14 -15 3 -5 11
-5 19 2 9 8 15 8 20 0 3 -5 -1 -10 -10 -10 -10 0 -13 -5 -9 -12 4 -6 -4 -3
-18 8 -15 10 -22 21 -17 22 20 8 -3 20 -28 16 -15 -3 -25 -2 -21 1 11 11 43
13 56 2 7 -5 15 -7 19 -3 3 3 1 6 -6 6 -7 0 -10 4 -7 8 4 7 -8 10 -50 14 -6 1
-11 6 -11 12 0 6 -2 16 -3 21 -1 6 -2 17 -1 25 1 13 2 13 11 0 8 -13 10 -12
10 3 0 9 -5 17 -11 17 -5 0 -7 4 -4 10 3 6 1 10 -5 10 -7 0 -9 12 -6 30 2 17
1 30 -3 30 -5 0 -8 18 -7 40 0 22 4 40 8 40 5 0 8 -4 8 -10 0 -5 5 -10 11 -10
6 0 9 7 6 14 -4 10 -1 13 9 9 12 -4 12 -8 2 -21 -8 -10 -9 -13 -1 -9 7 5 10
-1 9 -18 -2 -13 1 -22 5 -19 5 3 7 16 5 29 -3 18 1 26 15 30 15 5 17 10 10 19
-7 9 -7 16 0 23 8 8 7 13 -2 18 -8 5 -10 4 -5 -3 4 -7 2 -12 -4 -12 -7 0 -9
-8 -5 -20 7 -23 -7 -27 -24 -6 -12 14 -46 11 -67 -6 -6 -4 -19 -5 -29 -2 -13
5 -14 9 -3 15 10 7 10 9 -2 9 -9 1 -6 6 9 14 20 11 21 14 7 19 -10 4 -15 3
-11 -3 4 -6 -1 -7 -11 -3 -15 5 -15 7 0 15 9 5 16 14 16 20 0 6 -7 5 -17 -3
-12 -10 -15 -11 -9 -1 6 10 1 11 -21 7 -15 -3 -21 -2 -13 1 32 14 34 59 3 47
-11 -4 -14 -2 -9 5 5 8 2 10 -8 6 -9 -3 -16 -10 -16 -16 0 -5 -6 -3 -13 4 -17
18 -20 67 -5 86 10 13 10 14 1 8 -8 -4 -13 -1 -13 9 0 10 5 13 13 9 7 -5 6 0
-3 11 -9 11 -10 16 -2 11 6 -4 12 -2 12 3 0 6 -3 11 -8 11 -4 0 -8 22 -8 49 0
28 3 48 8 45 4 -3 8 -1 8 3 0 5 9 9 21 10 17 2 18 -1 9 -12 -7 -8 -16 -13 -20
-10 -15 9 -19 -24 -4 -35 8 -7 14 -17 14 -22 0 -6 -8 -4 -17 3 -15 12 -16 12
-8 -1 5 -8 17 -21 27 -28 10 -7 15 -18 12 -24 -4 -7 -2 -8 4 -4 7 4 12 2 12
-5 0 -7 3 -9 6 -6 4 4 1 13 -6 22 -7 9 -10 19 -6 22 4 4 12 1 17 -7 9 -12 10
-11 5 4 -5 13 -2 17 9 12 22 -8 18 2 -6 15 -12 6 -19 7 -15 1 3 -5 -1 -13 -10
-16 -24 -9 -29 -7 -17 5 9 9 6 16 -10 30 -12 10 -17 18 -10 19 6 0 15 -4 18
-10 3 -5 11 -10 18 -10 6 0 2 7 -9 15 -18 14 -18 15 5 12 13 -1 25 4 27 11 1
7 0 8 -3 2 -9 -19 -20 -10 -20 16 0 18 3 22 10 15 7 -7 15 -5 24 7 13 15 13
15 8 -8 -5 -21 -4 -22 5 -7 6 9 8 22 5 28 -4 5 12 29 36 51 23 22 34 36 23 30
-10 -6 -29 -19 -40 -31 -12 -11 -25 -17 -30 -13 -4 4 -4 -1 -1 -10 6 -18 -19
-46 -31 -33 -4 4 -1 10 6 12 6 3 12 9 12 15 0 7 -5 6 -14 -1 -11 -9 -13 -6
-13 14 0 14 3 25 8 25 5 0 9 -5 9 -10 0 -8 32 7 60 28 3 2 -6 12 -20 24 -16
13 -19 18 -7 14 9 -3 17 -1 17 5 0 7 -10 9 -27 4 -23 -5 -25 -4 -14 9 8 10 9
16 3 16 -6 0 -12 -5 -14 -12 -3 -7 -10 -8 -17 -4 -10 7 -10 10 -1 16 8 5 8 9
-3 13 -21 8 -15 -22 7 -38 9 -7 13 -16 8 -19 -5 -3 -15 1 -22 9 -14 17 -30 20
-30 4 0 -5 5 -7 11 -3 7 4 10 1 7 -7 -3 -8 -11 -13 -17 -11 -7 1 -9 -3 -6 -9
5 -8 10 -8 18 0 6 6 16 11 22 11 5 -1 -1 -10 -14 -21 -13 -11 -21 -22 -18 -25
3 -3 19 9 35 27 27 31 30 32 51 17 17 -12 19 -18 10 -24 -7 -4 -15 -2 -17 4
-2 7 -8 12 -14 12 -6 0 -5 -6 2 -15 11 -13 9 -15 -11 -13 -21 3 -24 -1 -24
-34 0 -40 -6 -50 -33 -54 -16 -3 -17 12 -18 179 0 100 1 173 4 162 6 -31 22
-42 16 -12 -2 16 0 27 6 27 6 0 8 -4 5 -10 -3 -6 -1 -10 4 -10 6 0 11 5 11 11
0 5 4 7 10 4 6 -3 7 1 4 9 -3 9 -11 13 -17 9 -6 -3 -7 -1 -3 5 5 9 13 9 26 2
16 -8 18 -8 14 5 -4 8 -10 15 -15 15 -5 0 -9 5 -9 11 0 5 5 7 11 4 19 -12 59
-13 66 -1 3 6 3 8 -2 4 -4 -4 -17 -3 -28 3 -15 9 -18 8 -12 -3 5 -7 4 -9 0 -5
-14 12 -15 38 -2 30 18 -11 36 -12 42 -3 3 5 0 12 -6 16 -8 4 -9 3 -5 -4 11
-18 0 -14 -15 5 -8 9 -9 14 -2 10 6 -4 13 -3 15 2 1 5 10 11 18 13 8 2 20 9
26 17 9 11 12 12 19 1 6 -9 4 -11 -5 -5 -9 5 -11 4 -6 -4 4 -6 12 -9 17 -6 8
5 14 -16 10 -37 0 -5 3 -8 8 -8 7 0 21 22 25 40 4 14 25 44 26 34 0 -6 -3 -14
-7 -18 -4 -3 -8 -12 -9 -19 -1 -7 -5 -20 -9 -30 -6 -13 -3 -16 9 -11 9 3 16 2
16 -3 0 -18 -13 -22 -34 -11 -18 9 -19 9 -10 -3 6 -8 10 -22 9 -32 -3 -14 1
-17 18 -12 19 5 19 4 -3 -10 -21 -13 -21 -15 -4 -10 14 3 21 1 21 -8 0 -9 -8
-12 -21 -9 -25 6 -20 -1 13 -18 15 -8 21 -8 17 -1 -4 6 -2 11 4 11 6 0 8 5 4
12 -4 7 -3 8 5 4 6 -4 9 -11 6 -16 -3 -5 0 -12 6 -16 8 -4 9 -3 5 4 -4 7 -1
12 9 12 8 0 18 7 21 15 4 8 11 12 18 8 6 -4 5 1 -3 10 -14 17 -10 21 22 18 9
-1 17 3 17 9 0 6 -4 8 -10 5 -6 -3 -7 1 -4 10 6 14 8 14 19 -1 11 -15 13 -15
28 6 9 13 14 28 11 34 -3 6 1 3 9 -7 12 -15 16 -15 20 -3 3 8 1 17 -6 20 -7 3
2 2 18 -1 28 -6 29 -5 15 13 -14 17 -14 18 2 6 10 -8 23 -10 30 -6 9 5 8 1 -2
-12 -14 -17 -14 -18 2 -5 18 14 22 91 4 91 -5 0 -3 7 4 15 7 8 17 12 24 9 6
-3 -3 7 -20 23 -19 17 -29 35 -27 46 3 9 9 14 15 11 7 -4 8 2 3 17 -7 22 -7
23 10 9 17 -14 18 -14 5 10 -12 23 -12 24 4 11 14 -12 16 -12 10 4 -6 14 -4
16 6 10 10 -6 12 -2 7 16 -4 13 -7 35 -7 49 0 20 -2 22 -10 10 -15 -24 -13 7
5 55 22 63 19 97 -12 120 -15 11 -35 28 -45 38 -10 9 -21 17 -26 17 -4 0 -18
10 -30 23 -51 51 -60 68 -58 108 2 21 -1 39 -6 39 -5 0 -20 7 -34 16 -20 14
-22 19 -12 32 10 12 10 14 1 8 -9 -5 -13 -1 -13 10 0 10 3 15 6 11 4 -3 27 5
53 18 25 14 51 25 57 25 6 0 24 6 40 14 16 7 44 20 62 27 35 15 42 41 17 65
-8 8 -16 14 -17 13 -9 -4 -68 38 -68 49 0 6 -4 12 -10 12 -5 0 -10 7 -10 16 0
9 -8 23 -17 31 -10 8 -12 12 -6 8 9 -4 11 -1 7 9 -3 9 -10 13 -15 10 -5 -3 -6
3 -2 12 5 14 2 16 -21 12 -14 -3 -29 -1 -32 4 -3 4 -10 6 -15 3 -5 -3 -6 1 -3
9 3 8 0 23 -6 33 -11 17 -11 17 -6 0 3 -11 3 -24 -1 -30 -15 -23 -12 -39 5
-32 13 5 14 4 5 -6 -10 -10 -9 -15 5 -26 16 -12 16 -13 -2 -6 -15 5 -17 3 -11
-8 4 -8 5 -11 0 -7 -5 5 -15 -1 -22 -12 -8 -11 -18 -18 -23 -15 -5 3 -14 -4
-20 -15 -8 -16 -15 -19 -24 -11 -7 6 -16 8 -19 5 -4 -4 -5 3 -2 14 2 12 -3 23
-12 26 -12 5 -13 9 -3 21 10 12 10 15 0 15 -10 0 -10 3 0 15 7 8 9 15 5 15 -4
0 -2 7 5 15 11 13 7 19 -11 17 -4 -1 -5 7 -2 17 3 13 -2 21 -16 26 -23 7 -26
22 -10 45 8 12 9 10 4 -8 -6 -21 -5 -23 13 -13 14 8 23 8 27 1 4 -6 3 -10 -2
-9 -26 5 -32 -2 -15 -19 14 -15 18 -16 23 -3 4 11 7 9 11 -7 4 -12 2 -20 -3
-17 -4 3 -6 -12 -4 -34 2 -22 0 -43 -5 -46 -6 -4 -6 -14 0 -26 6 -11 16 -16
22 -13 7 5 8 2 3 -6 -5 -8 -3 -11 6 -8 8 3 13 10 12 16 -2 6 7 9 18 7 13 -3
19 0 16 8 -3 7 -10 11 -16 9 -7 -1 -10 2 -6 8 5 8 11 8 20 0 8 -7 16 -7 19 -2
3 6 -1 13 -10 16 -12 5 -13 10 -6 19 7 8 7 18 2 27 -8 13 -10 13 -10 1 0 -8
-3 -11 -6 -8 -4 4 -3 12 2 19 5 7 9 24 9 38 0 14 5 31 12 38 13 13 7 42 -9 42
-5 0 -6 5 -2 12 4 6 3 8 -3 5 -6 -4 -13 0 -16 7 -4 10 0 14 13 11 13 -3 17 1
13 11 -3 7 -10 11 -17 7 -7 -4 -7 -1 1 9 7 8 9 19 5 23 -4 5 -1 5 6 1 7 -4 9
-12 6 -18 -4 -7 -2 -8 4 -4 15 9 16 36 2 36 -5 0 -10 7 -10 15 0 8 5 15 11 15
5 0 7 -5 3 -12 -4 -6 -3 -8 4 -4 12 7 8 44 -8 60 -6 6 -10 7 -10 0 0 -6 5 -15
10 -20 7 -7 6 -11 -4 -11 -15 0 -15 34 0 58 12 20 14 39 3 39 -8 0 -13 -15
-10 -32 0 -5 -4 -8 -10 -8 -7 0 -8 7 -4 18 4 9 8 25 9 35 1 9 9 23 16 30 12
10 12 9 1 -5 -8 -11 -9 -18 -3 -18 6 0 14 9 17 20 4 11 11 18 16 14 5 -3 8 0
7 7 -2 7 7 18 20 24 23 12 23 13 3 18 -13 3 -19 1 -14 -5 3 -7 1 -8 -6 -4 -6
4 -9 12 -5 17 3 5 10 7 15 4 8 -6 13 8 10 27 0 4 5 5 13 2 8 -3 21 5 30 17 8
13 19 19 23 15 4 -4 2 -11 -6 -15 -9 -6 -4 -15 21 -35 18 -15 25 -23 14 -20
-17 7 -17 5 -1 -27 l16 -34 -21 25 -21 25 12 -27 c6 -15 18 -29 26 -32 18 -7
74 24 66 37 -10 16 -8 107 2 107 6 0 3 5 -5 10 -9 6 -10 10 -3 10 8 0 9 9 3
30 -5 17 -5 30 0 30 12 0 6 28 -8 42 -8 8 -12 9 -12 1 0 -18 -107 -7 -123 12
-5 6 -7 4 -4 -5 2 -8 10 -14 16 -13 6 2 11 -2 11 -8 0 -5 4 -8 9 -5 5 3 15 -2
22 -11 12 -15 12 -16 -1 -8 -24 15 -52 17 -44 3 5 -7 3 -8 -6 -3 -8 5 -18 1
-27 -10 -7 -11 -13 -14 -13 -7 0 6 9 17 21 25 11 8 16 18 11 21 -6 3 -22 -8
-36 -25 -15 -17 -30 -29 -33 -25 -4 3 -3 6 2 6 4 0 0 9 -9 19 -19 21 -29 71
-13 68 5 -1 11 6 12 16 3 13 -1 17 -11 13 -8 -3 -13 -2 -10 3 7 11 -22 23 -36
14 -7 -4 -8 -1 -3 7 6 10 4 12 -8 7 -12 -4 -14 -2 -10 10 5 12 1 14 -16 8 -20
-6 -22 -5 -12 13 12 23 5 33 -16 25 -12 -5 -12 -7 -1 -15 10 -8 10 -9 -2 -5
-9 2 -14 14 -13 28 1 13 -1 18 -3 12 -3 -7 -10 -13 -15 -13 -6 0 -7 5 -4 10 3
6 1 10 -4 10 -14 0 -14 -17 -1 -25 24 -15 7 -24 -17 -9 -19 11 -22 11 -11 2
10 -8 15 -18 11 -21 -3 -4 -12 -2 -19 4 -8 7 -14 6 -20 -2 -4 -7 -3 -9 3 -6 6
4 16 0 23 -8 11 -13 10 -14 -5 -9 -11 5 -16 4 -12 -3 3 -5 0 -10 -8 -10 -15 0
-19 10 -16 35 1 7 -8 3 -20 -9 -16 -16 -23 -18 -29 -9 -5 8 -8 4 -7 -13 1 -14
6 -23 11 -19 5 3 6 -1 1 -8 -6 -10 -4 -12 7 -7 12 4 16 -1 16 -20 -1 -22 -2
-23 -10 -9 -5 9 -14 14 -19 10 -5 -3 -8 0 -7 8 2 7 -2 12 -8 11 -13 -2 -12 95
1 116 5 9 4 12 -2 8 -6 -4 -10 94 -11 270 -1 152 -3 278 -5 280 -2 2 -307 4
-678 4 -430 1 -679 5 -686 12 -8 5 -13 6 -13 0 0 -5 -29 -9 -64 -9 -35 1 -62
5 -59 9 3 5 11 6 19 3 8 -3 11 0 7 10 -4 11 -8 12 -20 2 -11 -9 -16 -9 -23 2
-6 10 -12 11 -22 3 -7 -6 -21 -9 -30 -8 -10 2 -20 0 -22 -4 -3 -4 11 -7 29 -7
18 0 31 5 28 10 -3 5 -1 6 6 2 6 -4 9 -11 6 -15 -5 -9 -922 -14 -937 -5 -5 3
-5 11 2 19 7 9 6 16 -7 26 -16 13 -17 12 -4 -3 9 -12 10 -18 2 -18 -6 0 -14 7
-17 15 -5 12 -10 10 -26 -8 -11 -12 -17 -16 -13 -9 3 6 1 12 -6 12 -6 0 -9 -8
-6 -19 4 -18 -14 -19 -716 -20 -549 0 -725 3 -736 12 -12 10 -13 9 -7 -1 6
-11 0 -13 -30 -9 -24 2 -38 9 -36 16 1 7 -2 10 -8 6 -6 -3 -8 -10 -5 -14 2 -5
-16 -8 -40 -7 -25 0 -45 4 -45 9 0 4 4 5 10 2 6 -3 7 1 4 10 -5 11 -2 14 10 9
9 -3 16 -1 16 6 0 6 -5 8 -12 4 -8 -5 -9 -2 -5 9 8 21 -11 33 -26 18 -9 -9 -8
-11 6 -5 12 4 16 2 12 -8 -8 -19 -46 -18 -40 2 2 8 0 22 -5 30 -8 12 -10 12
-10 1 0 -11 -3 -11 -15 -1 -8 7 -12 16 -9 21 6 10 0 12 -9 2z m-51 -52 c8 6
14 8 14 3 0 -5 4 -3 9 5 5 7 14 10 20 6 9 -5 7 -11 -6 -20 -13 -10 -20 -10
-25 -2 -5 8 -8 7 -8 -3 0 -9 6 -22 13 -30 10 -12 9 -12 -5 -1 -9 7 -23 9 -29
5 -8 -4 -9 -3 -5 4 9 15 1 15 -26 1 -16 -8 -19 -8 -13 1 5 8 3 11 -6 8 -8 -3
-14 -10 -14 -15 0 -6 -4 -15 -9 -20 -5 -5 -6 -2 -1 6 6 11 2 12 -21 7 -54 -14
-64 -15 -64 -5 0 5 8 9 18 7 12 -2 16 3 15 17 -1 18 0 18 10 4 11 -14 14 -13
36 6 13 14 31 21 42 18 12 -3 19 0 19 8 1 9 4 8 11 -4 8 -14 14 -16 25 -6z
m85 10 c6 10 8 7 7 -11 -2 -19 1 -24 15 -22 9 2 17 -2 17 -8 0 -5 -5 -10 -11
-10 -5 0 -8 -4 -5 -8 2 -4 -4 -8 -14 -8 -10 0 -17 4 -14 7 2 4 0 10 -6 14 -6
4 -8 11 -5 16 3 5 -1 6 -10 3 -12 -5 -13 -10 -6 -17 6 -6 11 -16 11 -21 0 -6
-7 -3 -15 8 -12 16 -12 21 3 41 9 13 19 19 21 13 2 -6 7 -4 12 3z m1715 -54
c1 -7 -8 -14 -20 -15 -16 -1 -18 1 -6 8 8 5 11 10 7 10 -5 0 -5 5 -2 11 8 12
18 5 21 -14z m2564 -685 c0 -7 -5 -10 -10 -7 -6 4 -8 11 -5 16 3 5 -1 6 -9 3
-9 -3 -16 -2 -16 4 0 6 6 12 13 15 13 4 27 -11 27 -31z m420 -86 c0 -3 -4 -8
-10 -11 -5 -3 -10 -1 -10 4 0 6 5 11 10 11 6 0 10 -2 10 -4z m-35 -136 c3 -5
1 -10 -4 -10 -6 0 -11 5 -11 10 0 6 2 10 4 10 3 0 8 -4 11 -10z m-125 -75 c-7
-9 -15 -13 -19 -10 -3 3 1 10 9 15 21 14 24 12 10 -5z m-89 -288 c-10 -9 -11
-8 -5 6 3 10 9 15 12 12 3 -3 0 -11 -7 -18z m-217 -19 c-3 -4 -2 -8 3 -9 29
-3 50 -7 67 -14 14 -6 17 -5 12 3 -5 8 -2 10 10 5 15 -5 15 -7 0 -15 -9 -5
-23 -5 -33 0 -10 4 -30 8 -45 7 -15 0 -24 3 -22 7 3 4 -2 8 -10 8 -9 0 -16 4
-16 9 0 6 9 9 19 8 11 0 17 -5 15 -9z m271 -31 c4 5 5 2 0 -6 -7 -12 -10 -11
-20 2 -7 9 -14 15 -16 12 -3 -2 -6 6 -6 17 -2 20 0 20 16 -5 10 -15 21 -24 26
-20z m-65 -7 c0 -5 -5 -10 -11 -10 -5 0 -7 5 -4 10 3 6 8 10 11 10 2 0 4 -4 4
-10z m-95 -9 c3 -5 2 -12 -3 -15 -5 -3 -9 1 -9 9 0 17 3 19 12 6z m135 -31 c0
-5 -4 -10 -10 -10 -5 0 -10 5 -10 10 0 6 5 10 10 10 6 0 10 -4 10 -10z m-20
-60 c0 -5 -4 -10 -10 -10 -5 0 -10 5 -10 10 0 6 5 10 10 10 6 0 10 -4 10 -10z
m20 -29 c0 -6 -4 -12 -8 -15 -5 -3 -9 1 -9 9 0 8 4 15 9 15 4 0 8 -4 8 -9z
m-64 -1052 c7 1 10 -22 5 -46 -1 -5 -8 7 -16 26 -16 37 -19 53 -6 33 4 -8 12
-13 17 -13z m185 -96 c-12 -20 -14 -14 -5 12 4 9 9 14 11 11 3 -2 0 -13 -6
-23z m-84 -58 c0 -8 -4 -15 -9 -15 -10 0 -11 14 -1 23 9 10 10 9 10 -8z
m-6006 -159 c-9 -11 -9 -15 1 -20 7 -3 4 -4 -7 -1 -14 3 -32 -8 -59 -35 -22
-22 -41 -38 -43 -37 -2 2 17 24 41 50 25 25 47 43 50 39 3 -3 6 0 6 6 0 7 5
12 11 12 8 0 8 -4 0 -14z m60 -26 c16 -7 29 -17 29 -22 0 -5 4 -6 10 -3 6 4 7
-1 3 -11 -4 -11 -8 -13 -11 -6 -2 7 -9 9 -14 6 -6 -4 -8 -2 -4 4 3 6 2 13 -3
16 -5 4 -12 -2 -14 -11 -3 -13 -5 -12 -6 5 0 13 -5 21 -10 18 -9 -6 -22 17
-20 37 1 7 3 5 6 -5 2 -9 17 -22 34 -28z m-156 -20 c3 -5 1 -10 -4 -10 -6 0
-11 5 -11 10 0 6 2 10 4 10 3 0 8 -4 11 -10z m85 6 c0 -2 -7 -7 -16 -10 -8 -3
-12 -2 -9 4 6 10 25 14 25 6z m35 -7 c11 -16 1 -19 -13 -3 -7 8 -8 14 -3 14 5
0 13 -5 16 -11z m-15 -13 c0 -2 -7 -6 -15 -10 -8 -3 -15 -1 -15 4 0 6 7 10 15
10 8 0 15 -2 15 -4z m-40 -16 c0 -5 -3 -9 -7 -9 -20 3 -26 -2 -13 -11 9 -6 10
-10 3 -10 -19 0 -27 21 -12 31 19 12 29 11 29 -1z m20 -26 c-24 -20 -28 -29
-18 -35 15 -10 6 -12 -16 -3 -16 6 -23 26 -8 22 4 -2 18 7 32 20 13 12 28 22
33 22 5 0 -6 -12 -23 -26z m60 16 c0 -5 -4 -10 -10 -10 -5 0 -10 5 -10 10 0 6
5 10 10 10 6 0 10 -4 10 -10z m30 4 c0 -3 -5 -15 -11 -26 -9 -17 -9 -20 3 -15
27 10 39 -8 15 -22 -12 -8 -19 -10 -15 -6 4 5 0 14 -9 20 -14 10 -15 16 -5 27
6 8 9 18 5 21 -3 4 -1 7 5 7 7 0 12 -3 12 -6z m27 -19 c0 -8 -4 -12 -9 -9 -5
3 -6 10 -3 15 9 13 12 11 12 -6z m-62 -35 c15 -29 11 -60 -7 -60 -5 0 -14 14
-19 30 -6 17 -15 30 -20 30 -5 0 -9 5 -9 12 0 6 9 3 20 -7 11 -10 20 -27 20
-39 0 -14 3 -17 10 -10 12 12 -6 64 -22 64 -4 0 -8 5 -8 11 0 17 19 0 35 -31z
m48 -57 c-9 -7 -13 -13 -9 -13 5 0 3 -7 -4 -15 -10 -12 -16 -13 -24 -5 -8 8
-6 15 6 24 10 7 15 16 11 20 -4 4 0 4 10 0 13 -5 16 -2 11 12 -5 16 -4 16 5 4
8 -11 7 -18 -6 -27z m5674 -279 c-3 -3 -12 -4 -19 -1 -8 3 -5 6 6 6 11 1 17
-2 13 -5z m63 -148 c0 -3 -4 -8 -10 -11 -5 -3 -10 -1 -10 4 0 6 5 11 10 11 6
0 10 -2 10 -4z m20 -91 c0 -5 -5 -3 -10 5 -5 8 -10 20 -10 25 0 6 5 3 10 -5 5
-8 10 -19 10 -25z m77 -220 c0 -8 -4 -12 -9 -9 -5 3 -6 10 -3 15 9 13 12 11
12 -6z m283 -57 c0 -5 0 -12 0 -18 0 -5 -5 -10 -11 -10 -8 0 -8 5 1 15 7 8 8
15 2 15 -5 0 -15 -6 -21 -14 -12 -14 -35 -16 -46 -4 -3 3 5 5 17 4 13 0 22 4
21 10 -1 6 7 11 18 10 10 0 19 -4 19 -8z m-165 -26 c-3 -3 -11 0 -18 7 -9 10
-8 11 6 5 10 -3 15 -9 12 -12z m-35 -7 c0 -7 -30 -13 -34 -7 -3 4 4 9 15 9 10
1 19 0 19 -2z m13 -40 c-3 -9 -8 -14 -10 -11 -3 3 -2 9 2 15 9 16 15 13 8 -4z
m90 -28 c3 -8 0 -14 -7 -14 -7 0 -13 6 -13 14 0 7 4 13 8 13 4 0 9 -6 12 -13z
m-253 -77 c0 -18 -3 -19 -21 -10 -15 9 -24 8 -37 -2 -15 -12 -16 -11 -4 4 8 9
23 19 35 21 12 2 23 5 25 6 1 0 2 -8 2 -19z m180 -75 c18 11 19 -13 1 -29 -17
-15 -19 -15 -36 5 -16 17 -17 22 -5 29 11 7 12 10 2 10 -7 0 -10 5 -7 11 5 6
13 3 22 -10 8 -12 18 -19 23 -16z m50 -70 c0 -1 -6 -7 -13 -13 -10 -8 -13 -6
-13 7 0 11 6 17 13 14 7 -3 13 -6 13 -8z m-25 -45 c-3 -5 -12 -10 -18 -10 -7
0 -6 4 3 10 19 12 23 12 15 0z m-61 -49 c-9 -9 -34 -9 -34 -1 0 5 9 8 20 7 10
-1 17 -3 14 -6z m-119 -71 c10 -11 16 -20 13 -20 -3 0 -13 9 -23 20 -10 11
-16 20 -13 20 3 0 13 -9 23 -20z m185 6 c0 -2 -8 -10 -17 -17 -16 -13 -17 -12
-4 4 13 16 21 21 21 13z m-360 -16 c0 -5 -2 -10 -4 -10 -3 0 -8 5 -11 10 -3 6
-1 10 4 10 6 0 11 -4 11 -10z m137 -5 c0 -8 -4 -12 -9 -9 -5 3 -6 10 -3 15 9
13 12 11 12 -6z m194 -22 c13 -16 12 -17 -3 -4 -17 13 -22 21 -14 21 2 0 10
-8 17 -17z m10 -36 c-6 -8 -9 -16 -6 -19 3 -2 -11 -4 -30 -3 -18 0 -37 3 -40
7 -3 3 8 4 24 3 17 -1 36 4 42 11 6 8 14 14 16 14 3 0 0 -6 -6 -13z m-317 -15
c2 -4 -4 -8 -14 -8 -10 0 -16 4 -14 8 3 4 9 8 14 8 5 0 11 -4 14 -8z m356 -2
c0 -5 -5 -10 -11 -10 -5 0 -7 5 -4 10 3 6 8 10 11 10 2 0 4 -4 4 -10z m-102
-45 c-3 -3 -9 2 -12 12 -6 14 -5 15 5 6 7 -7 10 -15 7 -18z m-103 5 c3 -5 1
-10 -4 -10 -6 0 -11 5 -11 10 0 6 2 10 4 10 3 0 8 -4 11 -10z m-155 -14 c0 -2
-7 -7 -16 -10 -8 -3 -12 -2 -9 4 6 10 25 14 25 6z m80 0 c0 -3 -4 -8 -10 -11
-5 -3 -10 -1 -10 4 0 6 5 11 10 11 6 0 10 -2 10 -4z m40 -4 c0 -5 -7 -9 -15
-9 -8 0 -12 4 -9 9 3 4 9 8 15 8 5 0 9 -4 9 -8z m84 0 c3 -5 -1 -9 -9 -9 -8 0
-15 4 -15 9 0 4 4 8 9 8 6 0 12 -4 15 -8z m193 -12 c-1 -21 -10 -18 -13 5 -1
8 2 15 6 15 5 0 8 -9 7 -20z m-371 -12 c-10 -6 -22 -6 -26 -2 -5 5 3 10 18 11
22 1 24 0 8 -9z m345 -5 c13 -16 12 -17 -3 -4 -17 13 -22 21 -14 21 2 0 10 -8
17 -17z m-277 -39 c3 -8 2 -12 -4 -9 -6 3 -10 10 -10 16 0 14 7 11 14 -7z
m251 6 c-3 -5 -12 -10 -18 -10 -7 0 -6 4 3 10 19 12 23 12 15 0z m-340 -20
c-3 -5 -12 -10 -18 -10 -7 0 -6 4 3 10 19 12 23 12 15 0z m245 6 c0 -2 -8 -10
-17 -17 -16 -13 -17 -12 -4 4 13 16 21 21 21 13z m27 -16 c1 -11 -2 -20 -7
-20 -6 0 -7 17 -1 38 3 8 7 -1 8 -18z m-226 -23 c-10 -9 -11 -8 -5 6 3 10 9
15 12 12 3 -3 0 -11 -7 -18z m43 15 c3 -5 -1 -9 -9 -9 -8 0 -12 4 -9 9 3 4 7
8 9 8 2 0 6 -4 9 -8z m277 -9 c13 -16 12 -17 -3 -4 -10 7 -18 15 -18 17 0 8 8
3 21 -13z m69 7 c0 -5 -2 -10 -4 -10 -3 0 -8 5 -11 10 -3 6 -1 10 4 10 6 0 11
-4 11 -10z m-444 -25 c-1 -8 -5 -17 -8 -21 -5 -4 -4 16 1 34 3 9 9 -1 7 -13z
m244 4 c0 -5 -4 -8 -9 -5 -5 4 -11 0 -14 -6 -3 -10 -8 -10 -18 1 -8 8 -9 11
-2 7 6 -3 14 -2 18 4 8 13 25 13 25 -1z m37 -29 c-2 -23 -10 -17 -12 10 -1 10
2 17 6 14 4 -2 7 -13 6 -24z m-217 10 c0 -5 -5 -10 -11 -10 -5 0 -7 5 -4 10 3
6 8 10 11 10 2 0 4 -4 4 -10z m261 -17 c13 -16 12 -17 -3 -4 -10 7 -18 15 -18
17 0 8 8 3 21 -13z m-315 -59 c2 -16 -14 -40 -21 -32 -4 3 -1 17 5 30 11 22
11 22 -10 -2 -20 -23 -20 -23 -10 -2 8 17 8 22 -2 23 -9 0 -10 2 -1 5 7 3 9
13 6 22 -3 9 3 6 13 -8 10 -14 19 -30 20 -36z m26 41 c16 0 15 -11 -2 -12 -10
-1 -21 5 -24 13 -4 10 -2 13 7 7 6 -4 15 -8 19 -8z m145 -10 c0 -8 -4 -12 -9
-9 -4 3 -8 9 -8 15 0 5 4 9 8 9 5 0 9 -7 9 -15z m60 0 c0 -8 -4 -12 -9 -9 -5
3 -6 10 -3 15 9 13 12 11 12 -6z m43 1 c0 -2 -8 -10 -17 -17 -16 -13 -17 -12
-4 4 13 16 21 21 21 13z m116 -14 c-3 -3 0 -12 6 -21 10 -13 10 -14 -2 -4 -16
15 -23 46 -8 37 5 -3 7 -9 4 -12z m79 8 c-3 -5 0 -10 7 -11 10 0 10 -2 0 -6
-6 -2 -9 -10 -6 -15 4 -6 2 -8 -4 -5 -5 4 -9 15 -7 25 5 23 4 22 11 22 3 0 2
-4 -1 -10z m-35 -15 c-10 -12 -10 -18 1 -32 12 -17 12 -17 -6 -1 -15 14 -16
20 -5 32 7 9 15 16 17 16 3 0 0 -7 -7 -15z m-327 -22 c-3 -7 -6 -13 -8 -13 -2
0 -5 6 -8 13 -3 8 1 14 8 14 7 0 11 -6 8 -14z m62 8 c3 -5 2 -12 -3 -15 -5 -3
-9 1 -9 9 0 17 3 19 12 6z m150 -21 c3 -6 -1 -7 -9 -4 -18 7 -21 14 -7 14 6 0
13 -4 16 -10z m-125 -21 c0 -4 -9 -7 -19 -6 -11 0 -18 4 -16 7 6 9 35 8 35 -1z
m60 -13 c0 -2 -7 -7 -16 -10 -8 -3 -12 -2 -9 4 6 10 25 14 25 6z m89 -18 c-5
-10 -11 -18 -12 -18 -2 0 -3 8 -3 18 0 10 6 19 13 19 8 0 9 -6 2 -19z m-39 2
c0 8 3 11 6 7 3 -3 2 -12 -3 -21 -7 -13 -11 -12 -22 7 -13 20 -13 21 2 8 14
-11 17 -11 17 -1z m148 -15 c-3 -3 -9 2 -12 12 -6 14 -5 15 5 6 7 -7 10 -15 7
-18z m27 -25 c3 -6 -1 -7 -9 -4 -18 7 -21 14 -7 14 6 0 13 -4 16 -10z m-492
-46 c3 -3 3 -13 0 -21 -5 -12 -7 -12 -14 -1 -15 23 -4 40 14 22z m-9 -339 c-4
-8 -11 -15 -16 -15 -6 0 -5 6 2 15 7 8 14 15 16 15 2 0 1 -7 -2 -15z m59 -36
c-9 -9 -12 -7 -10 9 1 14 5 18 11 12 7 -7 6 -14 -1 -21z m-5683 -70 c0 -5 5
-7 11 -3 6 3 4 -5 -6 -19 -12 -19 -13 -27 -4 -33 7 -4 9 -3 5 4 -3 6 -3 13 2
16 4 2 8 -22 8 -55 -1 -50 -3 -57 -13 -42 -9 12 -10 19 -2 24 8 4 7 9 -2 15
-7 4 -14 3 -17 -4 -2 -7 -8 -12 -13 -12 -5 0 -4 9 3 19 9 15 15 17 25 9 9 -7
13 -7 13 1 0 6 -4 12 -10 12 -5 1 -14 2 -19 3 -15 2 -25 16 -11 16 10 0 10 4
-1 17 -12 15 -12 16 3 10 10 -3 20 -1 24 5 5 7 2 8 -6 3 -9 -5 -11 -4 -6 3 5
8 1 10 -11 6 -15 -5 -16 -4 -3 5 19 14 30 14 30 0z m5612 -35 c-6 -12 -9 -7
-9 16 0 23 3 28 9 16 5 -9 5 -23 0 -32z m-5752 -79 c0 -8 -4 -15 -8 -15 -5 0
-9 7 -9 15 0 8 4 15 9 15 4 0 8 -7 8 -15z m57 -7 c-3 -8 -6 -5 -6 6 -1 11 2
17 5 13 3 -3 4 -12 1 -19z m48 -7 c-6 -5 -25 10 -25 20 0 5 6 4 14 -3 8 -7 12
-15 11 -17z m15 -38 c0 -7 -39 17 -46 28 -3 6 5 3 20 -6 14 -10 26 -19 26 -22z
m20 12 c14 -19 14 -19 -2 -6 -10 7 -18 18 -18 24 0 6 1 8 3 6 1 -2 9 -13 17
-24z m0 -39 c0 -2 -7 -7 -16 -10 -8 -3 -12 -2 -9 4 6 10 25 14 25 6z m-69 -59
c-10 -9 -11 -8 -5 6 3 10 9 15 12 12 3 -3 0 -11 -7 -18z m843 -109 c-3 -4 -1
-8 5 -8 5 0 13 5 16 10 3 6 12 10 18 10 7 0 0 -8 -14 -18 -24 -16 -29 -42 -8
-42 6 0 8 4 5 9 -7 11 22 36 31 27 3 -3 1 -6 -6 -6 -7 0 -10 -4 -6 -9 3 -5 1
-13 -5 -16 -6 -4 -8 -16 -4 -28 4 -13 -11 -1 -34 28 -41 51 -47 85 -12 63 10
-7 16 -16 14 -20z m64 7 c-3 -3 -9 2 -12 12 -6 14 -5 15 5 6 7 -7 10 -15 7
-18z m116 13 c-3 -5 -10 -6 -15 -3 -5 4 -9 2 -9 -4 0 -5 3 -11 8 -14 4 -2 1
-2 -5 -1 -7 2 -17 -5 -22 -14 -6 -9 -11 -13 -11 -9 0 16 31 54 45 54 8 0 12
-4 9 -9z m63 -5 c0 -8 -6 -9 -19 -2 -10 5 -18 11 -18 12 0 2 8 3 18 3 10 0 19
-6 19 -13z m40 -3 c1 -11 -3 -20 -8 -20 -6 0 -7 5 -4 10 3 6 0 10 -7 10 -9 0
-9 3 2 10 8 5 15 10 15 10 1 0 1 -9 2 -20z m2083 10 c0 -15 -28 -42 -38 -36
-8 5 -9 26 -3 43 2 5 41 -2 41 -7z m60 2 c0 -2 -5 -13 -11 -24 -9 -16 -8 -19
2 -13 7 5 10 4 6 -2 -4 -6 1 -10 9 -9 10 0 18 -8 20 -19 3 -20 3 -20 -12 -1
-8 11 -14 14 -14 8 0 -7 -9 -3 -20 8 -11 11 -24 20 -30 20 -5 0 -10 5 -10 11
0 8 6 7 17 -2 15 -13 15 -12 5 7 -9 18 -8 20 14 20 13 0 24 -2 24 -4z m43 2
c3 -4 2 -14 -3 -24 -6 -12 -5 -17 5 -17 8 0 12 4 10 8 -8 13 5 36 21 36 10 0
11 -4 5 -10 -7 -7 -7 -15 1 -25 16 -18 19 -42 7 -42 -6 0 -7 -6 -2 -12 4 -7 8
-20 8 -29 0 -9 6 -23 13 -32 12 -14 11 -16 -6 -14 -11 0 -18 6 -15 13 6 17
-15 28 -30 16 -8 -7 -17 -3 -29 13 -14 19 -15 24 -4 28 19 8 14 36 -9 53 -15
11 -16 16 -5 29 13 16 23 19 33 9z m852 -14 c-3 -5 5 -11 17 -13 22 -5 22 -5
-1 -4 -15 1 -25 9 -27 20 -1 9 2 15 7 11 5 -3 7 -9 4 -14z m85 -5 c0 -7 9 -17
20 -20 11 -3 20 -12 20 -19 0 -23 22 -36 44 -25 19 9 20 9 4 -4 -25 -20 -22
-30 5 -16 12 6 19 8 15 4 -4 -5 -2 -15 5 -23 9 -13 9 -14 0 -8 -7 4 -13 3 -13
-3 0 -18 19 -22 28 -5 8 14 10 12 10 -10 0 -14 -4 -29 -9 -32 -5 -3 -6 1 -3 9
3 8 -2 14 -11 14 -9 0 -14 -6 -11 -13 3 -8 0 -11 -9 -7 -8 3 -13 9 -10 13 6
10 -19 32 -28 25 -4 -3 -5 -2 -2 1 5 8 -75 75 -83 70 -4 -2 -13 2 -19 10 -11
11 -8 12 18 9 24 -3 29 0 25 11 -3 8 -9 21 -13 31 -4 11 -3 14 5 9 7 -4 12
-13 12 -21z m-26 0 c3 -8 1 -15 -4 -15 -6 0 -10 7 -10 15 0 8 2 15 4 15 2 0 6
-7 10 -15z m204 -10 c-3 -3 -9 2 -12 12 -6 14 -5 15 5 6 7 -7 10 -15 7 -18z
m-3714 -6 c-3 -5 -10 -7 -15 -3 -5 3 -7 10 -3 15 3 5 10 7 15 3 5 -3 7 -10 3
-15z m246 11 c0 -5 -4 -10 -10 -10 -5 0 -10 5 -10 10 0 6 5 10 10 10 6 0 10
-4 10 -10z m87 -4 c-3 -8 -2 -17 4 -20 5 -2 4 -3 -2 -2 -15 3 -21 36 -7 36 6
0 8 -6 5 -14z m2983 -17 c0 -11 -35 -35 -50 -35 -8 1 -16 10 -17 21 -2 17 -2
18 5 2 7 -16 8 -16 24 2 12 14 13 22 5 31 -8 8 -4 7 11 -1 12 -8 22 -17 22
-20z m77 4 c0 -16 -1 -20 -4 -10 -2 9 -9 17 -14 17 -6 0 -7 5 -4 10 11 18 21
10 22 -17z m278 17 c3 -5 1 -10 -4 -10 -6 0 -11 5 -11 10 0 6 2 10 4 10 3 0 8
-4 11 -10z m-3441 -25 c11 -8 15 -15 10 -15 -6 0 -19 7 -30 15 -10 8 -14 14
-9 14 6 0 19 -6 29 -14z m159 -19 c-2 -23 0 -26 13 -16 8 8 14 8 14 2 0 -6 -4
-12 -10 -14 -6 -2 -6 -9 0 -18 7 -12 11 -10 19 10 9 24 10 24 10 3 1 -13 -4
-23 -10 -23 -5 0 -7 -6 -4 -12 4 -7 -5 0 -19 17 -17 20 -24 36 -20 52 4 14 2
23 -6 23 -6 0 -9 -4 -5 -9 3 -6 -2 -14 -11 -19 -11 -6 -13 -11 -5 -16 14 -9
15 -26 1 -26 -5 0 -9 5 -7 11 1 6 -4 14 -12 17 -9 3 -11 0 -6 -8 6 -9 4 -11
-5 -5 -10 6 -9 11 5 22 11 7 22 13 27 13 4 0 7 3 7 8 -3 17 2 23 14 19 6 -2
11 -16 10 -31z m2803 11 c0 -13 -5 -24 -12 -24 -6 0 -10 7 -9 16 2 9 4 19 4
24 2 18 17 4 17 -16z m-2892 -19 c4 6 4 18 0 25 -6 10 -4 10 7 0 9 -10 10 -16
2 -24 -6 -6 -9 -18 -6 -25 3 -8 0 -14 -7 -14 -6 0 -9 4 -5 9 3 5 1 12 -5 16
-5 3 -10 16 -9 28 1 20 2 20 8 -3 5 -17 9 -21 15 -12z m-1004 12 c0 -5 -5 -10
-11 -10 -5 0 -7 5 -4 10 3 6 8 10 11 10 2 0 4 -4 4 -10z m903 -15 c-10 -8 -20
-11 -23 -8 -3 3 1 8 8 10 6 3 10 9 7 14 -4 5 1 6 10 3 14 -6 14 -8 -2 -19z
m317 15 c0 -5 -2 -10 -4 -10 -3 0 -8 5 -11 10 -3 6 -1 10 4 10 6 0 11 -4 11
-10z m2723 -15 c4 -8 3 -16 -1 -19 -4 -3 -9 4 -9 15 -2 23 3 25 10 4z m-2969
-27 c-3 -4 6 -13 20 -20 14 -6 26 -16 26 -21 0 -5 -7 -4 -15 3 -9 7 -18 10
-22 7 -8 -9 -63 31 -63 46 0 6 6 2 14 -9 8 -11 18 -15 23 -10 4 5 2 11 -4 13
-7 3 -13 9 -13 14 0 5 9 4 19 -3 11 -7 17 -16 15 -20z m3426 26 c0 -8 -19 -13
-24 -6 -3 5 1 9 9 9 8 0 15 -2 15 -3z m754 -40 c-9 -13 -13 -24 -9 -24 4 0 2
-6 -4 -13 -6 -8 -7 -18 -3 -22 4 -5 1 -5 -6 -1 -9 6 -11 1 -8 -18 3 -15 1 -24
-5 -21 -5 4 -7 11 -4 16 4 5 -1 9 -10 9 -12 0 -9 7 11 25 16 15 22 25 13 25
-12 0 -12 2 0 9 11 7 11 9 0 14 -10 4 -9 6 4 6 9 1 16 4 16 9 -3 16 2 23 11
17 6 -4 4 -16 -6 -31z m-4114 -5 c0 -5 5 -7 12 -3 7 4 8 3 4 -5 -6 -9 -11 -9
-22 0 -17 14 -18 19 -4 19 6 0 10 -5 10 -11z m43 -6 c-4 -11 -3 -14 5 -9 8 5
10 2 6 -9 -5 -11 -2 -14 12 -9 16 6 17 5 6 -7 -11 -12 -15 -11 -26 3 -7 10
-17 14 -21 10 -4 -4 -2 3 4 16 14 26 23 30 14 5z m3373 -8 c1 -8 -2 -15 -6
-15 -5 0 -8 9 -7 20 1 21 10 18 13 -5z m-3184 8 c-6 -2 -10 -8 -7 -13 3 -4 -5
-6 -17 -2 -21 5 -21 6 -2 13 10 4 24 8 29 8 6 -1 4 -3 -3 -6z m-204 -43 c18
-17 26 -19 42 -10 11 6 20 8 20 5 0 -4 5 -3 11 1 8 4 7 9 -2 15 -8 5 -9 9 -3
9 6 0 18 -8 25 -17 10 -11 10 -14 2 -9 -7 4 -13 3 -13 -3 0 -5 -8 -9 -17 -9
-10 0 -26 -3 -35 -6 -11 -5 -23 -1 -34 13 -10 11 -21 18 -26 15 -4 -3 -8 0 -8
5 0 17 14 13 38 -9z m-45 -3 c3 -8 0 -14 -7 -14 -7 0 -13 6 -13 14 0 7 4 13 8
13 4 0 9 -6 12 -13z m37 -42 c0 -5 -5 -3 -10 5 -5 8 -10 20 -10 25 0 6 5 3 10
-5 5 -8 10 -19 10 -25z m-27 -3 c-2 -7 3 -12 11 -12 8 0 16 -7 20 -15 5 -13 2
-13 -19 1 -14 9 -23 20 -20 24 3 5 -3 11 -12 14 -14 4 -13 4 2 2 11 -1 19 -8
18 -14z m107 14 c0 -2 -6 -9 -14 -15 -11 -9 -16 -9 -22 0 -4 8 -3 9 4 5 7 -4
12 -2 12 3 0 6 5 11 10 11 6 0 10 -2 10 -4z m3355 -16 c3 -5 1 -10 -4 -10 -6
0 -11 5 -11 10 0 6 2 10 4 10 3 0 8 -4 11 -10z m641 -30 c0 -11 -5 -20 -11
-20 -6 0 -11 9 -11 20 0 11 5 20 11 20 6 0 11 -9 11 -20z m-4716 -49 c12 -24
3 -51 -17 -51 -11 0 -13 5 -8 18 5 9 8 25 9 35 0 22 3 21 16 -2z m4069 -14 c8
-10 7 -14 -2 -14 -8 0 -14 6 -14 14 0 7 1 13 2 13 2 0 8 -6 14 -13z m-4315
-13 c3 -8 2 -12 -4 -9 -6 3 -10 10 -10 16 0 14 7 11 14 -7z"/>
<path d="M1919 6333 c-13 -16 -12 -17 4 -4 16 13 21 21 13 21 -2 0 -10 -8 -17
-17z"/>
<path d="M1960 6340 c-9 -6 -10 -10 -3 -10 6 0 15 5 18 10 8 12 4 12 -15 0z"/>
<path d="M660 3269 c0 -5 5 -7 10 -4 6 3 10 8 10 11 0 2 -4 4 -10 4 -5 0 -10
-5 -10 -11z"/>
<path d="M6606 2242 c-3 -6 0 -15 8 -21 10 -9 17 -7 27 6 7 10 9 15 5 11 -5
-4 -15 -3 -22 3 -7 6 -14 6 -18 1z"/>
<path d="M1430 686 c0 -2 7 -9 15 -16 13 -11 14 -10 9 4 -5 14 -24 23 -24 12z"/>
<path d="M3796 687 c3 -10 9 -15 12 -12 3 3 0 11 -7 18 -10 9 -11 8 -5 -6z"/>
<path d="M3905 691 c-3 -5 0 -13 6 -17 7 -4 9 -3 5 4 -3 5 0 13 6 15 9 4 10 6
1 6 -6 1 -14 -3 -18 -8z"/>
<path d="M3952 669 c2 -8 -2 -13 -8 -12 -6 1 -11 -5 -11 -13 0 -7 5 -14 10
-14 5 0 4 -7 -3 -15 -15 -18 -8 -28 19 -30 18 -1 23 17 8 31 -3 4 -2 15 3 24
7 13 5 22 -6 31 -12 10 -15 10 -12 -2z m11 -24 c-3 -9 -8 -14 -10 -11 -3 3 -2
9 2 15 9 16 15 13 8 -4z m3 -37 c4 -7 3 -8 -4 -4 -7 4 -12 2 -12 -5 0 -7 -3
-10 -6 -6 -6 5 3 27 11 27 2 0 7 -5 11 -12z"/>
<path d="M4877 653 c-13 -12 -7 -21 46 -64 28 -24 46 -36 39 -27 -7 9 -9 18
-5 20 4 3 3 4 -4 2 -6 -1 -23 15 -38 37 -31 43 -29 42 -38 32z m28 -33 c10
-11 16 -20 13 -20 -3 0 -13 9 -23 20 -10 11 -16 20 -13 20 3 0 13 -9 23 -20z"/>
<path d="M4619 643 c-13 -16 -12 -17 4 -4 16 13 21 21 13 21 -2 0 -10 -8 -17
-17z"/>
<path d="M2115 6390 c-3 -5 -1 -10 4 -10 6 0 11 5 11 10 0 6 -2 10 -4 10 -3 0
-8 -4 -11 -10z"/>
<path d="M3730 6339 c0 -5 5 -7 10 -4 6 3 10 8 10 11 0 2 -4 4 -10 4 -5 0 -10
-5 -10 -11z"/>
<path d="M3857 6313 c3 -7 6 -13 8 -13 2 0 5 6 8 13 3 8 -1 14 -8 14 -7 0 -11
-6 -8 -14z"/>
<path d="M4937 6316 c-4 -10 5 -13 39 -11 45 2 63 10 50 22 -4 4 -11 1 -16 -7
-9 -13 -10 -13 -10 0 0 13 -1 13 -10 0 -6 -10 -10 -11 -10 -2 0 16 -37 15 -43
-2z"/>
<path d="M2240 6316 c0 -2 7 -7 16 -10 8 -3 12 -2 9 4 -6 10 -25 14 -25 6z"/>
<path d="M6375 5940 c-3 -5 -1 -10 4 -10 6 0 11 5 11 10 0 6 -2 10 -4 10 -3 0
-8 -4 -11 -10z"/>
<path d="M6313 5853 c0 -9 4 -10 14 -2 7 6 13 12 13 14 0 1 -6 2 -13 2 -8 0
-14 -6 -14 -14z"/>
<path d="M6310 5686 c0 -2 7 -7 16 -10 8 -3 12 -2 9 4 -6 10 -25 14 -25 6z"/>
<path d="M6542 5670 c15 -24 35 -33 44 -18 7 11 -15 30 -28 22 -4 -3 -8 0 -8
5 0 6 -5 11 -10 11 -6 0 -5 -8 2 -20z"/>
<path d="M6596 5655 c-6 -18 -3 -22 20 -28 4 -1 8 6 10 16 1 9 -1 15 -6 12 -5
-3 -10 0 -12 7 -3 7 -7 4 -12 -7z"/>
<path d="M6612 5603 c1 -5 -3 -17 -9 -29 -10 -17 -9 -25 4 -43 l15 -22 24 22
c13 12 24 27 24 33 0 6 -5 4 -10 -4 -8 -12 -10 -12 -10 -1 0 8 -7 11 -20 8
-11 -3 -20 -1 -20 4 0 5 5 9 10 9 6 0 10 7 10 15 0 8 -4 15 -10 15 -5 0 -9 -3
-8 -7z m33 -55 c3 -3 -1 -11 -9 -17 -12 -10 -17 -9 -25 7 -8 15 -7 18 9 17 11
-1 22 -4 25 -7z"/>
<path d="M6688 5386 c-22 -16 -23 -27 -3 -20 8 4 22 1 29 -5 21 -18 29 4 8 22
-14 13 -20 13 -34 3z m33 -13 c13 -16 12 -17 -3 -4 -10 7 -18 15 -18 17 0 8 8
3 21 -13z"/>
<path d="M6805 5284 c-11 -8 -26 -12 -33 -9 -22 8 -35 -5 -21 -21 9 -11 8 -18
-2 -31 -7 -10 7 0 31 22 25 22 47 41 49 43 2 1 2 4 0 6 -2 2 -13 -2 -24 -10z
m-30 -24 c3 -6 -1 -7 -9 -4 -18 7 -21 14 -7 14 6 0 13 -4 16 -10z"/>
<path d="M6593 4912 c0 -12 5 -22 9 -22 11 0 10 12 -2 30 -7 12 -9 10 -7 -8z"/>
<path d="M6647 4883 c3 -7 6 -13 8 -13 2 0 5 6 8 13 3 8 -1 14 -8 14 -7 0 -11
-6 -8 -14z"/>
<path d="M6510 4776 c0 -2 8 -10 18 -17 15 -13 16 -12 3 4 -13 16 -21 21 -21
13z"/>
<path d="M630 4201 c0 -6 4 -13 10 -16 6 -3 7 1 4 9 -7 18 -14 21 -14 7z"/>
<path d="M630 4140 c0 -4 7 -7 15 -6 23 3 26 12 5 13 -11 1 -20 -2 -20 -7z"/>
<path d="M595 4080 c3 -5 8 -10 11 -10 2 0 4 5 4 10 0 6 -5 10 -11 10 -5 0 -7
-4 -4 -10z"/>
<path d="M659 4008 c-5 -18 -6 -38 -1 -34 7 8 12 36 6 36 -2 0 -4 -1 -5 -2z"/>
<path d="M6424 3759 c-3 -5 6 -8 20 -7 26 2 26 10 1 14 -8 1 -17 -2 -21 -7z"/>
<path d="M6426 3638 c3 -5 10 -6 15 -3 13 9 11 12 -6 12 -8 0 -12 -4 -9 -9z"/>
<path d="M6375 3620 c-3 -5 -1 -10 4 -10 6 0 11 5 11 10 0 6 -2 10 -4 10 -3 0
-8 -4 -11 -10z"/>
<path d="M596 3582 c-3 -6 3 -21 14 -33 19 -24 19 -24 20 -3 0 24 -25 50 -34
36z m22 -27 c-3 -3 -9 2 -12 12 -6 14 -5 15 5 6 7 -7 10 -15 7 -18z"/>
<path d="M6390 3585 c0 -7 30 -13 34 -7 3 4 -4 9 -15 9 -10 1 -19 0 -19 -2z"/>
<path d="M6306 3497 c3 -10 9 -15 12 -12 3 3 0 11 -7 18 -10 9 -11 8 -5 -6z"/>
<path d="M6471 3487 c2 -1 13 -9 24 -17 19 -14 19 -14 6 3 -7 9 -18 17 -24 17
-6 0 -8 -1 -6 -3z"/>
<path d="M6468 3452 c9 -10 19 -17 21 -16 6 5 -20 34 -30 34 -5 0 -1 -8 9 -18z"/>
<path d="M6530 3460 c0 -5 5 -10 11 -10 5 0 7 5 4 10 -3 6 -8 10 -11 10 -2 0
-4 -4 -4 -10z"/>
<path d="M6634 3462 c4 -3 14 -7 22 -8 9 -1 13 0 10 4 -4 3 -14 7 -22 8 -9 1
-13 0 -10 -4z"/>
<path d="M6430 3436 c0 -21 20 -30 33 -16 9 10 8 12 -7 6 -14 -5 -17 -2 -12 9
3 8 1 15 -4 15 -6 0 -10 -6 -10 -14z"/>
<path d="M6595 3429 c-4 -6 -5 -12 -2 -15 2 -3 7 2 10 11 7 17 1 20 -8 4z"/>
<path d="M6495 3409 c-4 -6 -5 -12 -2 -15 2 -3 7 2 10 11 7 17 1 20 -8 4z"/>
<path d="M6516 3391 c-4 -5 -2 -12 3 -15 5 -4 12 -2 15 3 4 5 2 12 -3 15 -5 4
-12 2 -15 -3z"/>
<path d="M6545 3369 c-4 -11 -4 -23 -1 -26 3 -4 6 1 6 10 0 10 5 17 10 17 6 0
10 5 10 10 0 18 -19 10 -25 -11z"/>
<path d="M6616 3378 c3 -4 11 -5 19 -1 21 7 19 12 -4 10 -11 0 -18 -5 -15 -9z"/>
<path d="M6473 3361 c0 -11 5 -17 9 -15 4 3 8 0 8 -5 0 -6 5 -11 11 -11 8 0 8
5 -1 15 -13 15 -2 21 16 8 5 -5 1 0 -9 10 -25 22 -36 22 -34 -2z"/>
<path d="M6304 3358 c3 -15 26 -23 26 -8 0 6 -4 9 -9 6 -5 -4 -12 -1 -14 4 -3
6 -4 5 -3 -2z"/>
<path d="M6451 3354 c0 -11 3 -14 6 -6 3 7 2 16 -1 19 -3 4 -6 -2 -5 -13z"/>
<path d="M6574 3359 c-3 -6 -1 -16 6 -22 10 -9 12 -8 6 7 -5 16 -2 17 21 12
21 -5 24 -4 13 4 -20 13 -37 13 -46 -1z"/>
<path d="M6423 3335 c-3 -9 -3 -18 -1 -21 3 -3 8 4 11 16 6 23 -1 27 -10 5z"/>
<path d="M6596 3325 c-9 -26 -7 -32 5 -12 6 10 9 21 6 23 -2 3 -7 -2 -11 -11z"/>
<path d="M6622 3319 c-7 -12 -11 -23 -8 -26 3 -3 8 2 12 11 3 9 10 13 15 10 5
-3 6 2 3 10 -8 20 -7 20 -22 -5z"/>
<path d="M6674 3315 c0 -13 3 -22 7 -19 8 4 6 30 -2 38 -3 3 -5 -5 -5 -19z"/>
<path d="M6440 3318 c0 -5 9 -6 21 -3 18 6 19 5 10 -13 -14 -27 -28 -35 -43
-26 -8 5 -6 10 8 15 16 6 16 8 2 8 -30 2 -30 -18 -1 -44 15 -13 32 -25 37 -25
6 0 1 6 -9 14 -18 13 -19 15 -3 33 26 28 26 47 1 49 -13 1 -23 -3 -23 -8z"/>
<path d="M6510 3320 c-8 -5 -10 -10 -5 -10 6 0 17 5 25 10 8 5 11 10 5 10 -5
0 -17 -5 -25 -10z"/>
<path d="M6556 3315 c4 -8 8 -15 10 -15 2 0 4 7 4 15 0 8 -4 15 -10 15 -5 0
-7 -7 -4 -15z"/>
<path d="M6542 3290 c9 -14 19 -18 33 -13 17 5 18 4 6 -11 -9 -10 -10 -16 -2
-16 6 0 11 5 11 10 0 6 8 10 18 11 12 0 11 3 -6 10 -13 5 -28 6 -33 3 -5 -3
-12 2 -15 10 -3 9 -10 16 -15 16 -5 0 -4 -9 3 -20z"/>
<path d="M6490 3295 c0 -6 5 -16 11 -22 8 -8 8 -17 -1 -33 -6 -12 -9 -24 -6
-27 3 -3 10 6 15 21 6 14 16 26 22 26 8 0 7 -6 -2 -17 -13 -16 -12 -17 3 -5
11 9 18 10 23 2 3 -5 11 -10 17 -10 6 0 -1 9 -15 20 -14 11 -30 20 -36 20 -5
0 -15 8 -20 18 -6 9 -11 12 -11 7z"/>
<path d="M6384 3253 c-8 -14 -2 -25 33 -57 35 -32 40 -42 28 -49 -8 -4 -15
-12 -15 -18 0 -5 9 -1 21 9 l20 19 -42 42 c-23 22 -39 44 -35 49 4 4 16 -4 27
-17 10 -13 19 -19 20 -15 0 5 4 0 9 -11 6 -14 9 -15 9 -5 1 9 -7 22 -17 30
-48 40 -47 40 -58 23z"/>
<path d="M6470 3260 c0 -5 5 -10 10 -10 6 0 10 5 10 10 0 6 -4 10 -10 10 -5 0
-10 -4 -10 -10z"/>
<path d="M6630 3260 c0 -5 5 -10 10 -10 6 0 10 5 10 10 0 6 -4 10 -10 10 -5 0
-10 -4 -10 -10z"/>
<path d="M6596 3234 c-9 -24 -2 -26 12 -4 7 11 8 20 3 20 -5 0 -12 -7 -15 -16z"/>
<path d="M6650 3240 c-8 -5 -10 -10 -5 -10 6 0 17 5 25 10 8 5 11 10 5 10 -5
0 -17 -5 -25 -10z"/>
<path d="M6534 3215 c-3 -8 -10 -12 -15 -9 -5 3 -6 -2 -2 -12 5 -14 3 -15 -15
-5 -26 14 -32 14 -32 -1 0 -6 3 -8 7 -5 3 4 13 1 21 -5 11 -10 17 -9 26 4 11
16 14 16 28 1 17 -17 40 -10 32 10 -2 7 -13 18 -24 25 -17 10 -21 10 -26 -3z
m41 -33 c-6 -7 -35 18 -35 31 0 5 9 2 20 -8 11 -10 18 -20 15 -23z"/>
<path d="M6610 3209 c-7 -11 -9 -23 -7 -26 3 -2 8 5 12 16 7 22 26 20 21 -2
-1 -7 -1 -9 1 -4 3 4 9 7 14 7 6 0 8 -4 4 -9 -3 -5 -1 -12 4 -15 5 -4 12 -2
15 3 4 5 -7 19 -23 31 l-30 21 -11 -22z"/>
<path d="M6670 3221 c0 -6 4 -13 10 -16 6 -3 7 1 4 9 -7 18 -14 21 -14 7z"/>
<path d="M6690 3226 c0 -2 7 -7 16 -10 8 -3 12 -2 9 4 -6 10 -25 14 -25 6z"/>
<path d="M6696 3178 c3 -5 10 -6 15 -3 13 9 11 12 -6 12 -8 0 -12 -4 -9 -9z"/>
<path d="M6390 3169 c0 -5 4 -8 9 -4 5 3 12 1 16 -5 5 -9 -7 -14 -27 -12 -3 1
-9 -5 -12 -13 -5 -13 -2 -13 24 0 33 17 38 30 14 39 -21 8 -24 8 -24 -5z"/>
<path d="M6530 3160 c0 -5 5 -10 10 -10 6 0 10 5 10 10 0 6 -4 10 -10 10 -5 0
-10 -4 -10 -10z"/>
<path d="M6582 3150 c-7 -11 -8 -20 -3 -20 9 0 24 30 18 36 -1 2 -8 -6 -15
-16z"/>
<path d="M6610 3160 c0 -5 5 -10 10 -10 6 0 10 5 10 10 0 6 -4 10 -10 10 -5 0
-10 -4 -10 -10z"/>
<path d="M6730 3160 c0 -5 9 -8 20 -7 21 1 18 10 -5 13 -8 1 -15 -2 -15 -6z"/>
<path d="M6508 3143 c7 -3 18 -16 23 -30 5 -14 12 -23 16 -20 8 9 -25 57 -40
56 -9 0 -8 -2 1 -6z"/>
<path d="M6659 3143 c-1 -4 -1 -11 0 -15 2 -12 -17 -10 -22 2 -3 6 -4 5 -3 -2
2 -7 9 -13 17 -13 8 0 13 6 12 13 -2 6 6 12 17 12 11 0 19 -6 18 -12 -2 -7 3
-13 11 -13 8 0 15 6 17 13 1 7 0 8 -3 2 -7 -14 -24 -13 -20 2 1 7 -8 14 -20
16 -13 2 -24 0 -24 -5z"/>
<path d="M6470 3130 c0 -5 5 -10 10 -10 6 0 10 5 10 10 0 6 -4 10 -10 10 -5 0
-10 -4 -10 -10z"/>
<path d="M6550 3131 c0 -10 19 -25 25 -20 1 2 -3 10 -11 17 -8 7 -14 8 -14 3z"/>
<path d="M6601 3133 c-1 -6 -4 -20 -7 -30 -5 -17 -5 -17 6 0 6 10 9 23 6 30
-3 9 -5 9 -5 0z"/>
<path d="M6750 3125 c0 -8 4 -15 10 -15 5 0 7 7 4 15 -4 8 -8 15 -10 15 -2 0
-4 -7 -4 -15z"/>
<path d="M6815 3129 c-4 -6 -5 -12 -2 -15 2 -3 7 2 10 11 7 17 1 20 -8 4z"/>
<path d="M6312 3105 c-15 -32 -15 -32 3 -39 8 -3 14 0 12 6 -1 6 4 13 11 15 6
3 10 -1 9 -9 -2 -7 -2 -9 1 -5 2 4 11 2 20 -5 14 -11 14 -9 0 8 -22 25 -24 41
-3 24 8 -7 15 -8 15 -4 0 5 -9 15 -21 22 -12 8 -18 9 -15 4 3 -5 -2 -16 -11
-23 -14 -12 -15 -11 -9 9 10 30 2 28 -12 -3z"/>
<path d="M6400 3120 c-13 -8 -12 -10 3 -10 9 0 17 5 17 10 0 12 -1 12 -20 0z"/>
<path d="M6450 3115 c0 -8 4 -15 10 -15 5 0 7 7 4 15 -4 8 -8 15 -10 15 -2 0
-4 -7 -4 -15z"/>
<path d="M6504 3122 c3 -5 0 -12 -6 -15 -7 -2 -10 -7 -7 -11 3 -4 12 0 18 8 9
11 9 16 0 22 -7 4 -9 3 -5 -4z"/>
<path d="M6423 3095 c-3 -9 -3 -18 -1 -21 3 -3 8 4 11 16 6 23 -1 27 -10 5z"/>
<path d="M6610 3091 c-6 -12 -7 -21 -1 -21 10 0 24 30 17 37 -2 3 -9 -5 -16
-16z"/>
<path d="M6670 3100 c0 -5 5 -10 10 -10 6 0 10 5 10 10 0 6 -4 10 -10 10 -5 0
-10 -4 -10 -10z"/>
<path d="M6730 3100 c0 -5 5 -10 11 -10 5 0 7 5 4 10 -3 6 -8 10 -11 10 -2 0
-4 -4 -4 -10z"/>
<path d="M6393 3080 c1 -21 10 -18 13 5 1 8 -2 15 -6 15 -5 0 -8 -9 -7 -20z"/>
<path d="M6440 3078 c0 -11 12 -10 30 2 12 7 10 9 -8 7 -12 0 -22 -5 -22 -9z"/>
<path d="M6510 3086 c0 -2 7 -7 16 -10 8 -3 12 -2 9 4 -6 10 -25 14 -25 6z"/>
<path d="M6554 3079 c-8 -14 11 -33 25 -25 11 7 4 36 -9 36 -5 0 -12 -5 -16
-11z m21 -9 c3 -5 1 -10 -4 -10 -6 0 -11 5 -11 10 0 6 2 10 4 10 3 0 8 -4 11
-10z"/>
<path d="M6636 3074 c-9 -24 -2 -26 12 -4 7 11 8 20 3 20 -5 0 -12 -7 -15 -16z"/>
<path d="M6700 3086 c0 -2 7 -7 16 -10 8 -3 12 -2 9 4 -6 10 -25 14 -25 6z"/>
<path d="M6480 3070 c-8 -5 -11 -10 -6 -10 5 0 3 -6 -3 -13 -8 -10 -7 -14 4
-14 8 0 13 2 10 5 -2 3 0 13 6 23 11 22 10 23 -11 9z"/>
<path d="M6680 3070 c0 -5 -5 -9 -11 -7 -6 1 -14 -5 -16 -13 -4 -12 -3 -12 5
-2 5 8 13 13 18 12 5 -1 10 3 12 9 2 6 1 11 -2 11 -3 0 -6 -4 -6 -10z"/>
<path d="M6514 3062 c3 -6 1 -12 -6 -14 -7 -3 -5 -7 6 -11 11 -5 15 -3 10 5
-5 8 -2 9 9 5 24 -9 21 0 -4 14 -13 6 -19 7 -15 1z"/>
<path d="M6590 3041 c0 -6 5 -13 12 -17 7 -5 8 -3 3 6 -6 10 -4 12 9 7 10 -4
15 -3 11 3 -8 13 -35 13 -35 1z"/>
<path d="M6507 3019 c7 -7 15 -10 18 -7 3 3 -2 9 -12 12 -14 6 -15 5 -6 -5z"/>
<path d="M6540 3026 c0 -2 11 -6 25 -8 13 -3 22 -1 19 3 -5 9 -44 13 -44 5z"/>
<path d="M6471 2937 c2 -1 14 -11 27 -21 12 -11 22 -16 22 -13 0 10 -31 37
-42 37 -6 0 -9 -1 -7 -3z"/>
<path d="M6413 2915 c0 -8 4 -12 9 -9 4 3 8 9 8 15 0 5 -4 9 -8 9 -5 0 -9 -7
-9 -15z"/>
<path d="M6466 2842 c1 -15 3 -29 4 -32 2 -3 3 -14 4 -25 1 -21 33 -85 42 -85
2 0 0 9 -6 20 -8 16 -8 22 4 26 21 8 13 59 -9 57 -13 -1 -16 5 -12 23 3 17 -1
28 -13 34 -14 8 -16 5 -14 -18z m49 -65 c-1 -11 -7 -23 -13 -25 -8 -2 -10 3
-5 14 4 10 2 15 -4 11 -5 -3 -10 0 -10 6 0 7 8 14 17 14 11 1 16 -6 15 -20z"/>
<path d="M6479 2682 c5 -10 19 -18 30 -19 17 -1 19 1 9 11 -7 7 -21 15 -31 19
-14 5 -16 3 -8 -11z"/>
<path d="M6735 2529 c-4 -6 -5 -12 -2 -15 2 -3 7 2 10 11 7 17 1 20 -8 4z"/>
<path d="M6518 2403 c7 -3 16 -2 19 1 4 3 -2 6 -13 5 -11 0 -14 -3 -6 -6z"/>
<path d="M6497 2389 c7 -7 15 -10 18 -7 3 3 -2 9 -12 12 -14 6 -15 5 -6 -5z"/>
<path d="M6553 2385 c0 -8 4 -15 9 -15 4 0 8 4 8 9 0 6 -4 12 -8 15 -5 3 -9
-1 -9 -9z"/>
<path d="M6474 2382 c3 -5 1 -12 -6 -14 -8 -3 -9 -6 -1 -11 6 -4 13 0 17 8 3
8 0 17 -6 21 -6 4 -8 3 -4 -4z"/>
<path d="M6516 2358 c3 -5 10 -6 15 -3 13 9 11 12 -6 12 -8 0 -12 -4 -9 -9z"/>
<path d="M6584 2351 c0 -11 4 -17 8 -15 4 3 8 12 8 20 0 8 -4 14 -8 14 -4 0
-8 -9 -8 -19z"/>
<path d="M6551 2347 c-8 -10 -7 -14 2 -14 8 0 14 6 14 14 0 7 -1 13 -2 13 -2
0 -8 -6 -14 -13z"/>
<path d="M6497 2316 c-4 -10 -1 -13 8 -9 8 3 12 9 9 14 -7 12 -11 11 -17 -5z"/>
<path d="M6465 2280 c-3 -5 -1 -10 4 -10 6 0 11 5 11 10 0 6 -2 10 -4 10 -3 0
-8 -4 -11 -10z"/>
<path d="M6490 2281 c0 -6 4 -13 10 -16 6 -3 7 1 4 9 -7 18 -14 21 -14 7z"/>
<path d="M6495 2240 c-3 -5 -1 -10 4 -10 6 0 11 5 11 10 0 6 -2 10 -4 10 -3 0
-8 -4 -11 -10z"/>
<path d="M6533 2235 c0 -8 4 -12 9 -9 5 3 6 10 3 15 -9 13 -12 11 -12 -6z"/>
<path d="M6468 2213 c6 -2 18 -2 25 0 6 3 1 5 -13 5 -14 0 -19 -2 -12 -5z"/>
<path d="M6307 2157 c-3 -9 -2 -19 4 -22 5 -4 7 -10 4 -15 -3 -5 -1 -11 4 -14
5 -4 12 -2 16 4 4 6 11 7 17 4 7 -4 8 -2 4 4 -4 7 -2 12 3 12 6 0 11 -5 11
-12 0 -6 3 -8 7 -5 3 4 12 2 20 -5 11 -8 17 -8 26 3 7 7 8 11 3 7 -12 -10 -86
29 -86 45 0 8 -3 8 -9 -2 -7 -11 -9 -11 -13 0 -3 9 -6 8 -11 -4z m38 -19 c3
-3 -3 -11 -12 -19 -10 -7 -15 -9 -11 -5 4 5 3 15 -3 22 -7 9 -6 12 5 10 9 -1
18 -5 21 -8z"/>
<path d="M6517 2152 c-19 -21 -22 -42 -7 -42 5 0 7 6 4 14 -3 8 5 21 18 30 12
9 18 16 12 16 -6 0 -18 -8 -27 -18z"/>
<path d="M6566 2158 c3 -5 10 -6 15 -3 13 9 11 12 -6 12 -8 0 -12 -4 -9 -9z"/>
<path d="M6454 2139 c-3 -6 -3 -13 0 -16 3 -4 6 -1 6 5 0 6 7 9 15 6 8 -4 15
-4 15 -1 0 11 -30 16 -36 6z"/>
<path d="M6539 2148 c-6 -12 -4 -46 2 -42 4 2 5 12 2 21 -5 12 -3 14 7 8 9 -5
11 -4 6 3 -7 11 -14 15 -17 10z"/>
<path d="M6476 2107 c3 -10 9 -15 12 -12 3 3 0 11 -7 18 -10 9 -11 8 -5 -6z"/>
<path d="M676 2061 c-4 -6 -1 -11 6 -11 9 0 9 -3 -2 -10 -9 -6 -10 -10 -3 -10
17 0 23 14 14 29 -6 9 -11 10 -15 2z"/>
<path d="M6486 2047 c3 -10 9 -15 12 -12 3 3 0 11 -7 18 -10 9 -11 8 -5 -6z"/>
<path d="M639 1963 c-1 -11 -6 -35 -11 -53 -3 -8 -3 -12 -1 -7 3 4 8 5 12 3 4
-3 7 11 8 30 0 19 -1 34 -3 34 -2 0 -4 -3 -5 -7z"/>
<path d="M640 1879 c0 -5 5 -7 10 -4 6 3 10 8 10 11 0 2 -4 4 -10 4 -5 0 -10
-5 -10 -11z"/>
<path d="M673 1865 c0 -8 4 -12 9 -9 5 3 6 10 3 15 -9 13 -12 11 -12 -6z"/>
<path d="M6310 1100 c0 -5 5 -10 10 -10 6 0 10 5 10 10 0 6 -4 10 -10 10 -5 0
-10 -4 -10 -10z"/>
<path d="M660 1082 c0 -7 -10 -13 -22 -13 -19 -1 -20 -2 -4 -6 20 -5 44 12 33
24 -4 3 -7 1 -7 -5z"/>
<path d="M575 1060 c-3 -5 -1 -10 4 -10 6 0 11 5 11 10 0 6 -2 10 -4 10 -3 0
-8 -4 -11 -10z"/>
<path d="M593 1025 c0 -8 4 -15 9 -15 4 0 8 4 8 9 0 6 -4 12 -8 15 -5 3 -9 -1
-9 -9z"/>
<path d="M581 993 c16 -27 29 -30 29 -6 0 9 -3 13 -7 10 -3 -4 -13 -1 -21 6
-13 11 -14 9 -1 -10z"/>
<path d="M6316 847 c3 -10 9 -15 12 -12 3 3 0 11 -7 18 -10 9 -11 8 -5 -6z"/>
<path d="M6425 800 c-3 -6 1 -7 9 -4 18 7 21 14 7 14 -6 0 -13 -4 -16 -10z"/>
<path d="M6376 782 c-3 -5 1 -9 9 -9 8 0 12 4 9 9 -3 4 -7 8 -9 8 -2 0 -6 -4
-9 -8z"/>
<path d="M6300 766 c0 -2 8 -10 18 -17 15 -13 16 -12 3 4 -13 16 -21 21 -21
13z"/>
<path d="M6335 700 c3 -5 8 -10 11 -10 2 0 4 5 4 10 0 6 -5 10 -11 10 -5 0 -7
-4 -4 -10z"/>
<path d="M1386 687 c3 -10 9 -15 12 -12 3 3 0 11 -7 18 -10 9 -11 8 -5 -6z"/>
<path d="M1855 691 c-3 -5 -2 -12 3 -15 5 -3 9 1 9 9 0 17 -3 19 -12 6z"/>
<path d="M2106 691 c-4 -6 -14 -7 -24 -4 -9 3 -5 -4 11 -16 15 -13 25 -27 22
-32 -4 -5 -1 -9 4 -9 6 0 11 6 11 13 0 9 2 9 8 0 4 -7 13 -9 21 -4 9 6 6 10
-10 14 -13 4 -20 9 -17 12 3 4 16 1 28 -5 18 -10 21 -9 15 1 -6 8 -4 10 4 4
10 -6 11 -3 1 14 -9 18 -14 20 -26 10 -11 -9 -17 -9 -28 0 -9 8 -16 8 -20 2z
m20 -27 c2 -12 -1 -13 -12 -3 -7 6 -11 16 -8 21 7 11 17 3 20 -18z m44 16 c0
-5 -5 -10 -11 -10 -5 0 -7 5 -4 10 3 6 8 10 11 10 2 0 4 -4 4 -10z"/>
<path d="M2200 690 c-8 -5 -11 -12 -7 -17 5 -4 13 -1 18 7 9 12 10 11 4 -5 -3
-11 -3 -16 1 -13 4 4 15 3 25 -2 12 -7 20 -7 24 0 6 9 -8 14 -20 8 -2 -2 -10
5 -17 14 -9 12 -17 15 -28 8z"/>
<path d="M2271 679 c8 -17 -11 -46 -23 -34 -14 15 -53 12 -74 -4 -21 -17 -68
-24 -62 -10 4 8 -22 39 -33 39 -4 0 -11 -9 -14 -21 -7 -22 -17 -19 -21 6 -1 8
2 15 7 15 6 0 7 5 3 11 -4 8 -9 7 -15 -2 -4 -7 -5 -17 -3 -21 3 -4 -6 -13 -20
-20 -14 -6 -27 -15 -27 -20 -1 -4 -2 -14 -3 -20 -4 -23 5 -29 21 -16 14 11 15
10 8 -11 -7 -22 -7 -23 12 -4 11 10 17 24 15 31 -3 8 -8 10 -11 5 -10 -13 -33
-15 -25 -2 5 8 3 9 -6 4 -8 -5 -11 -4 -6 3 4 6 14 8 23 5 10 -4 14 -2 9 5 -3
6 -1 14 5 18 7 4 9 3 5 -4 -3 -6 -2 -13 3 -16 5 -4 12 -2 16 4 4 7 12 7 24 0
10 -5 22 -6 26 -2 5 4 5 1 1 -6 -5 -8 -2 -11 6 -10 7 2 12 -3 10 -10 -1 -8 2
-11 8 -7 6 4 9 13 7 19 -3 7 1 13 8 13 7 0 11 -7 8 -16 -3 -10 -2 -12 4 -6 5
7 15 3 28 -11 23 -24 30 -44 15 -44 -5 0 -10 6 -10 14 0 7 -8 20 -17 27 -16
12 -17 12 -6 -2 13 -16 8 -29 -10 -29 -5 0 -6 8 -3 18 4 9 -7 1 -24 -18 l-31
-35 28 39 c24 34 25 38 6 26 -12 -8 -20 -17 -17 -21 2 -4 -1 -11 -7 -15 -7 -4
-9 -3 -5 4 4 6 -3 9 -19 7 -14 -1 -28 2 -31 6 -10 17 -21 9 -21 -17 0 -17 2
-22 8 -13 5 9 11 6 20 -14 7 -15 16 -27 21 -27 5 0 6 -5 2 -12 -4 -7 -3 -8 4
-4 6 3 16 -2 21 -13 16 -29 13 -39 -4 -17 -9 12 -15 14 -15 7 0 -7 10 -21 22
-30 21 -18 17 -48 -5 -34 -8 5 -8 2 1 -9 7 -8 10 -23 6 -32 -3 -9 -1 -16 5
-16 13 0 10 -22 -4 -32 -6 -5 -3 -8 6 -8 9 0 21 -12 28 -26 9 -21 14 -24 26
-14 10 8 15 9 15 2 0 -6 -5 -14 -10 -17 -6 -4 -8 -11 -4 -16 4 -6 10 -6 18 0
7 6 16 7 20 3 4 -4 6 0 4 8 -2 9 3 14 12 12 8 -2 12 -1 8 3 -3 4 8 20 25 37
18 18 24 28 15 25 -44 -17 -51 -17 -24 -2 25 15 42 21 67 24 3 1 15 10 27 21
12 12 22 16 22 11 0 -5 9 -9 20 -8 11 1 20 5 20 10 0 5 -7 6 -16 3 -10 -4 -13
-2 -8 6 5 7 2 8 -7 3 -8 -5 -11 -4 -6 0 4 5 1 18 -7 31 -13 19 -13 24 0 40 14
18 14 18 8 -1 -7 -19 -6 -20 8 -1 14 18 44 14 33 -4 -3 -5 -1 -12 5 -15 6 -4
10 -3 9 2 -4 21 2 34 13 27 7 -4 8 -3 4 4 -4 6 -14 9 -24 6 -11 -4 -8 2 8 15
22 19 23 21 5 19 -14 -2 -19 2 -16 12 2 8 4 20 4 27 0 7 4 10 8 7 5 -2 6 -11
2 -19 -3 -8 0 -15 7 -15 6 0 8 5 5 10 -6 9 7 14 30 11 6 -1 1 6 -9 14 -18 14
-15 20 9 15 6 -1 5 4 -2 11 -10 10 -9 15 3 23 8 7 16 18 17 26 4 25 18 41 30
33 9 -5 9 -3 0 8 -9 11 -9 19 -2 26 7 7 -5 9 -36 8 -26 -1 -50 -7 -55 -14 -4
-7 -10 -9 -12 -5 -3 5 -3 4 -2 -3 2 -7 -1 -15 -7 -19 -14 -8 -41 16 -35 32 3
8 0 11 -9 7 -8 -3 -13 -9 -10 -13 3 -4 -2 -10 -10 -14 -8 -3 -19 2 -24 12 -5
9 -21 17 -35 17 -20 1 -23 -2 -15 -16z m47 -20 c4 0 17 -2 30 -5 17 -3 21 0
16 8 -4 7 2 5 14 -6 20 -18 23 -18 47 -2 14 9 25 22 25 28 0 7 7 3 15 -8 12
-15 14 -15 9 -2 -4 12 0 16 14 15 24 -1 22 -25 -3 -43 -14 -11 -15 -14 -4 -15
10 0 10 -2 1 -6 -6 -2 -9 -10 -6 -15 4 -7 2 -8 -4 -4 -7 4 -13 2 -13 -3 -2
-12 -5 -26 -9 -38 -1 -5 -2 -12 -1 -18 1 -5 -6 -1 -14 9 -8 11 -16 16 -17 10
0 -5 -2 -13 -3 -19 -2 -5 -3 -16 -4 -24 -1 -8 -8 -11 -18 -7 -11 4 -9 -1 6
-13 l24 -19 -21 -11 c-12 -6 -22 -8 -22 -4 -1 4 -10 -3 -20 -16 -14 -16 -17
-27 -10 -36 5 -6 7 -15 3 -18 -3 -4 0 -7 7 -7 9 0 5 -9 -10 -25 -12 -13 -27
-22 -31 -19 -5 3 -9 0 -9 -7 0 -7 -7 -4 -16 7 -8 10 -12 13 -8 5 9 -18 -17
-33 -33 -19 -10 8 -12 7 -8 -4 4 -9 -1 -18 -10 -22 -9 -3 -13 -11 -10 -17 4
-6 14 -8 24 -4 9 3 12 3 6 -2 -5 -4 -26 -22 -45 -38 -19 -17 -27 -20 -17 -9
15 18 15 22 4 27 -8 3 -20 1 -26 -4 -6 -5 -9 -6 -6 -3 2 4 -3 13 -11 21 -8 8
-12 19 -9 24 4 5 1 9 -5 9 -6 0 -9 4 -5 9 3 5 1 12 -3 15 -10 6 -9 36 2 54 4
7 4 18 -1 25 -5 7 -8 22 -7 34 0 12 -4 24 -11 27 -6 2 -27 24 -46 47 -19 24
-27 39 -19 34 8 -5 22 -10 30 -10 8 0 16 -6 16 -12 1 -7 2 -16 3 -20 0 -3 11
2 24 13 23 21 44 24 65 10 7 -4 16 -5 20 -2 13 14 9 37 -8 46 -26 14 -32 39
-13 58 16 16 16 16 10 0 -3 -10 -2 -18 2 -18 5 0 12 7 15 15 4 12 10 13 23 6
23 -11 59 11 47 30 -4 8 -3 10 4 5 7 -4 13 -1 13 6 1 7 3 5 6 -4 2 -10 8 -18
11 -19z m-222 -24 c1 -8 -4 -11 -12 -8 -15 6 -18 16 -7 26 8 9 16 1 19 -18z"/>
<path d="M2483 665 c0 -8 4 -12 9 -9 5 3 6 10 3 15 -9 13 -12 11 -12 -6z"/>
<path d="M2438 652 c-11 -15 -31 -21 -48 -13 -3 2 -20 4 -37 5 -18 1 -36 5
-39 9 -4 3 -19 -2 -33 -12 -19 -14 -31 -17 -44 -10 -13 8 -15 6 -11 -5 4 -11
-1 -14 -20 -12 -27 3 -25 -10 5 -31 17 -13 18 -24 4 -56 -6 -14 -10 -15 -22
-5 -22 18 -51 17 -69 -4 -14 -15 -20 -16 -33 -6 -10 8 -9 5 3 -9 10 -13 23
-20 27 -17 10 6 11 2 13 -36 1 -14 5 -31 9 -37 5 -7 5 -19 1 -25 -11 -17 -12
-48 -2 -42 8 5 9 1 12 -35 1 -19 26 -54 26 -38 0 4 9 3 19 -3 27 -14 37 5 11
23 -18 12 -18 16 -5 33 14 18 15 18 8 0 -4 -13 -2 -17 8 -14 8 3 13 12 11 22
-3 18 13 22 23 6 9 -15 25 -2 18 15 -5 15 8 21 21 8 13 -13 35 -11 48 5 10 12
10 14 1 8 -7 -4 -13 -3 -13 3 0 5 5 13 10 16 8 5 8 11 0 19 -7 10 -4 20 11 39
11 15 23 26 27 26 29 -4 34 2 14 17 -20 14 -22 41 -2 29 5 -3 11 -1 14 4 4 5
2 12 -4 16 -5 3 -10 11 -10 16 0 6 4 8 9 4 5 -3 12 -1 16 4 3 6 13 7 23 4 13
-4 13 -2 -3 11 -14 11 -15 14 -4 10 16 -5 28 11 35 48 5 25 -12 31 -28 10z
m17 -10 c-2 -27 -14 -42 -31 -35 -11 4 -15 0 -12 -13 2 -10 -2 -19 -9 -19 -21
0 -26 -14 -12 -32 8 -9 9 -14 2 -10 -6 4 -14 3 -18 -3 -4 -6 -11 -8 -16 -5
-18 12 -9 -7 14 -27 12 -11 17 -17 10 -14 -6 3 -23 -8 -37 -25 -15 -17 -30
-28 -34 -25 -3 4 0 11 8 16 12 8 12 10 1 10 -11 0 -11 3 -1 15 7 9 16 12 19 7
3 -6 13 -3 21 6 13 14 12 15 -3 9 -12 -5 -16 -3 -11 5 4 7 3 8 -4 4 -8 -4 -10
-2 -6 7 8 23 -15 31 -35 13 -19 -17 -22 -51 -7 -75 6 -10 5 -12 -2 -7 -7 4
-12 5 -12 2 0 -3 14 -13 32 -22 28 -15 30 -18 15 -29 -12 -8 -13 -15 -5 -23
12 -12 -9 -12 -29 1 -18 11 -36 -2 -28 -20 4 -13 3 -14 -9 -4 -18 15 -50 1
-66 -28 -7 -15 -5 -22 13 -35 l22 -17 -25 12 c-14 7 -27 10 -29 8 -2 -2 -5 4
-7 14 -1 9 2 15 7 11 5 -3 9 0 9 5 0 6 -4 11 -8 11 -16 0 -31 47 -20 58 6 6 7
16 2 23 -4 7 -8 25 -9 39 -2 34 -13 52 -28 43 -7 -3 -4 3 6 14 18 21 50 24 69
5 8 -8 19 -3 41 19 23 23 27 33 18 42 -9 9 -11 8 -6 -5 4 -11 2 -18 -5 -18 -6
0 -9 4 -6 9 3 5 -1 14 -9 21 -8 7 -15 18 -15 24 0 7 4 6 9 -2 6 -11 10 -10 15
4 3 9 9 14 13 11 3 -4 18 2 32 13 19 12 32 16 42 9 12 -7 12 -9 0 -9 -18 0 -6
-13 15 -16 9 -1 13 3 11 10 -6 16 26 14 47 -3 12 -10 16 -10 16 -2 0 7 4 10 9
6 6 -3 15 4 21 15 13 25 17 25 15 2z m-128 -131 c-2 -10 -8 -26 -15 -33 -6 -8
-8 -19 -4 -23 4 -5 2 -5 -4 -2 -12 7 -13 45 -1 65 12 19 27 14 24 -7z"/>
<path d="M2277 616 c-15 -14 -28 -19 -30 -13 -2 6 -6 3 -10 -7 -4 -9 -3 -15 2
-12 5 3 14 -1 21 -9 10 -13 7 -21 -21 -50 -28 -28 -36 -32 -49 -22 -13 11 -24
12 -53 8 -4 0 -1 -11 7 -23 7 -13 13 -33 11 -45 -1 -13 7 -30 17 -40 21 -19
25 -41 4 -24 -21 18 -27 -2 -9 -29 l16 -23 19 23 c10 12 18 19 18 15 0 -4 7
-2 15 5 8 7 15 9 15 5 0 -4 7 -2 15 5 12 10 18 10 32 -1 12 -10 14 -10 9 -1
-4 7 -1 15 9 18 13 5 11 10 -13 24 -23 14 -28 24 -27 54 1 43 36 85 57 70 18
-14 44 -11 40 5 -4 18 18 42 30 35 6 -4 5 3 -1 14 -17 32 -28 34 -44 11 -8
-11 -17 -17 -19 -12 -3 4 -3 3 -2 -4 3 -14 -16 -30 -33 -27 -7 1 -17 2 -21 3
-4 0 -8 11 -9 24 l-2 22 13 -23 c15 -28 29 -17 15 12 -9 17 -7 17 11 -4 l21
-25 -12 25 c-7 14 -12 28 -11 33 3 12 -4 8 -31 -17z m96 -35 c-15 -13 -19 -21
-11 -29 8 -8 6 -10 -6 -8 -20 3 -21 8 0 47 12 24 18 29 27 19 9 -9 7 -16 -10
-29z m-85 -48 c-31 -34 -32 -89 -1 -113 14 -11 19 -21 13 -25 -5 -3 -10 -1
-10 6 0 7 -8 5 -20 -6 -11 -10 -20 -15 -20 -10 0 4 -7 2 -15 -5 -8 -7 -15 -9
-15 -4 0 5 -9 -2 -19 -15 l-19 -24 -11 24 c-11 21 -10 22 1 7 13 -15 15 -15
24 0 9 13 6 20 -10 33 -15 12 -22 28 -21 51 1 18 -5 38 -13 44 -12 9 -11 11 6
9 11 0 27 -6 34 -13 12 -9 22 -4 52 27 41 42 83 55 44 14z"/>
<path d="M2366 593 c-6 -14 -5 -15 5 -6 7 7 10 15 7 18 -3 3 -9 -2 -12 -12z"/>
<path d="M2245 510 c-35 -36 -40 -38 -55 -25 -15 13 -16 11 -15 -23 1 -41 12
-65 25 -57 4 3 11 -2 14 -11 5 -13 9 -14 21 -4 8 7 15 9 15 5 0 -4 7 -2 15 5
12 10 13 15 3 28 -20 23 -17 74 6 100 33 37 13 25 -29 -18z m1 -35 c0 -14 -5
-25 -10 -25 -6 0 0 -7 12 -16 24 -16 21 -37 -3 -27 -9 3 -15 -1 -15 -8 0 -11
-2 -11 -10 1 -5 8 -15 15 -21 15 -7 0 -13 15 -14 32 -1 24 2 30 10 23 8 -7 18
-4 30 10 22 25 21 25 21 -5z"/>
<path d="M2210 450 c-12 -17 -18 -30 -13 -29 4 1 10 0 13 -1 3 -1 16 -3 30 -4
l24 -3 -22 15 c-17 11 -19 18 -11 33 15 29 3 22 -21 -11z"/>
<path d="M2309 518 c-5 -18 -6 -38 -1 -34 7 8 12 36 6 36 -2 0 -4 -1 -5 -2z"/>
<path d="M2714 689 c-3 -6 -2 -15 3 -20 5 -5 9 -1 9 11 0 23 -2 24 -12 9z"/>
<path d="M3337 689 c7 -7 15 -10 18 -7 3 3 -2 9 -12 12 -14 6 -15 5 -6 -5z"/>
<path d="M3397 693 c-10 -9 -9 -23 1 -23 5 0 9 7 9 15 0 17 -1 18 -10 8z"/>
<path d="M3472 694 c4 -4 3 -14 -2 -24 -6 -12 -5 -17 5 -17 7 0 11 7 7 15 -3
10 -1 13 6 8 7 -4 12 -3 12 2 0 6 -8 13 -17 16 -10 4 -14 4 -11 0z"/>
<path d="M3537 685 c2 -7 10 -12 17 -12 7 0 13 5 13 12 0 6 -8 11 -18 11 -9 0
-15 -5 -12 -11z"/>
<path d="M3715 691 c-3 -5 -2 -12 3 -15 5 -3 9 1 9 9 0 17 -3 19 -12 6z"/>
<path d="M3997 693 c-3 -5 4 -15 16 -23 21 -12 21 -12 7 6 -8 10 -15 20 -16
22 -1 2 -4 -1 -7 -5z"/>
<path d="M4055 689 c-4 -6 -5 -12 -2 -15 2 -3 7 2 10 11 7 17 1 20 -8 4z"/>
<path d="M4294 680 c0 -13 4 -16 10 -10 7 7 7 13 0 20 -6 6 -10 3 -10 -10z"/>
<path d="M4431 691 c-7 -5 -12 -14 -10 -20 2 -6 10 -2 17 9 14 22 13 23 -7 11z"/>
<path d="M5724 688 c-5 -8 -3 -10 19 -12 6 0 12 -8 12 -16 0 -8 5 -16 10 -17
13 -2 6 30 -7 38 -6 4 -5 9 3 12 8 3 4 4 -9 4 -13 -1 -26 -5 -28 -9z"/>
<path d="M6215 691 c-3 -5 -2 -12 3 -15 5 -3 9 1 9 9 0 17 -3 19 -12 6z"/>
<path d="M2665 680 c-3 -6 1 -7 9 -4 18 7 21 14 7 14 -6 0 -13 -4 -16 -10z"/>
<path d="M2910 681 c0 -6 4 -12 8 -15 5 -3 9 1 9 9 0 8 -4 15 -9 15 -4 0 -8
-4 -8 -9z"/>
<path d="M2950 681 c0 -6 4 -13 10 -16 6 -3 7 1 4 9 -7 18 -14 21 -14 7z"/>
<path d="M3245 677 c-14 -11 -15 -16 -5 -22 9 -6 11 -4 5 5 -6 9 -4 12 7 8 9
-4 15 0 15 8 0 17 1 17 -22 1z"/>
<path d="M3285 680 c3 -5 8 -10 11 -10 2 0 4 5 4 10 0 6 -5 10 -11 10 -5 0 -7
-4 -4 -10z"/>
<path d="M4455 679 c-4 -6 -5 -12 -2 -15 2 -3 7 2 10 11 7 17 1 20 -8 4z"/>
<path d="M5875 680 c-3 -5 -1 -10 4 -10 6 0 11 5 11 10 0 6 -2 10 -4 10 -3 0
-8 -4 -11 -10z"/>
<path d="M6116 682 c-3 -5 1 -9 9 -9 8 0 12 4 9 9 -3 4 -7 8 -9 8 -2 0 -6 -4
-9 -8z"/>
<path d="M2615 660 c3 -5 8 -10 11 -10 2 0 4 5 4 10 0 6 -5 10 -11 10 -5 0 -7
-4 -4 -10z"/>
<path d="M3361 649 c12 -24 26 -31 26 -14 0 8 -5 11 -10 8 -6 -4 -8 0 -5 9 4
8 0 15 -7 15 -10 0 -11 -5 -4 -18z"/>
<path d="M3430 656 c13 -18 13 -19 -1 -14 -9 4 -16 1 -16 -7 0 -9 6 -11 16 -6
9 5 23 6 31 3 8 -2 13 -3 10 -1 -3 2 -16 13 -30 24 -24 19 -24 19 -10 1z"/>
<path d="M4396 653 c-6 -14 -5 -15 5 -6 7 7 10 15 7 18 -3 3 -9 -2 -12 -12z"/>
<path d="M4470 659 c0 -5 5 -7 10 -4 6 3 10 8 10 11 0 2 -4 4 -10 4 -5 0 -10
-5 -10 -11z"/>
<path d="M6166 658 c3 -5 10 -6 15 -3 13 9 11 12 -6 12 -8 0 -12 -4 -9 -9z"/>
<path d="M3292 651 c4 -15 58 -25 58 -12 0 5 -10 8 -22 7 -13 -1 -27 3 -31 9
-5 6 -7 5 -5 -4z"/>
<path d="M1900 646 c0 -2 8 -10 18 -17 15 -13 16 -12 3 4 -13 16 -21 21 -21
13z"/>
<path d="M3075 640 c3 -5 8 -10 11 -10 2 0 4 5 4 10 0 6 -5 10 -11 10 -5 0 -7
-4 -4 -10z"/>
<path d="M3266 640 c5 -8 9 -18 9 -22 0 -3 3 -9 7 -13 3 -4 5 0 4 9 -1 9 -8
22 -16 29 -10 10 -11 9 -4 -3z"/>
<path d="M4294 638 c-4 -7 -4 -10 1 -6 4 4 15 2 24 -5 14 -11 14 -10 2 6 -16
20 -18 21 -27 5z"/>
<path d="M4426 635 c4 -8 11 -15 16 -15 6 0 5 6 -2 15 -7 8 -14 15 -16 15 -2
0 -1 -7 2 -15z"/>
<path d="M6290 640 c0 -5 5 -10 11 -10 5 0 7 5 4 10 -3 6 -8 10 -11 10 -2 0
-4 -4 -4 -10z"/>
<path d="M4031 627 c-8 -10 -7 -14 2 -14 8 0 14 6 14 14 0 7 -1 13 -2 13 -2 0
-8 -6 -14 -13z"/>
<path d="M4233 625 c0 -8 4 -12 9 -9 5 3 6 10 3 15 -9 13 -12 11 -12 -6z"/>
<path d="M1810 615 c-9 -11 -10 -19 -3 -26 7 -7 12 -2 15 15 6 30 5 31 -12 11z"/>
<path d="M1878 623 c7 -3 16 -2 19 1 4 3 -2 6 -13 5 -11 0 -14 -3 -6 -6z"/>
<path d="M2815 620 c3 -5 8 -10 11 -10 2 0 4 5 4 10 0 6 -5 10 -11 10 -5 0 -7
-4 -4 -10z"/>
<path d="M3199 613 c-13 -16 -12 -17 4 -4 16 13 21 21 13 21 -2 0 -10 -8 -17
-17z"/>
<path d="M3485 620 c-3 -6 1 -7 9 -4 18 7 21 14 7 14 -6 0 -13 -4 -16 -10z"/>
<path d="M3630 625 c0 -5 5 -17 10 -25 5 -8 10 -10 10 -5 0 6 -5 17 -10 25 -5
8 -10 11 -10 5z"/>
<path d="M3798 612 c4 -10 7 -12 10 -4 2 7 9 9 15 5 7 -3 8 -2 4 2 -14 16 -36
14 -29 -3z"/>
<path d="M2056 612 c-3 -4 -4 -17 -2 -27 4 -25 44 -27 57 -3 5 10 6 17 2 16
-4 -1 -18 3 -30 10 -12 7 -24 8 -27 4z m44 -37 c0 0 -8 -1 -18 -1 -10 0 -19 8
-19 17 -2 16 0 17 18 1 10 -9 19 -17 19 -17z"/>
<path d="M3720 606 c7 -7 13 -7 20 0 6 6 3 10 -10 10 -13 0 -16 -4 -10 -10z"/>
<path d="M3773 605 c0 -8 4 -12 9 -9 5 3 6 10 3 15 -9 13 -12 11 -12 -6z"/>
<path d="M2967 599 c7 -7 15 -10 18 -7 3 3 -2 9 -12 12 -14 6 -15 5 -6 -5z"/>
<path d="M3413 595 c0 -8 4 -12 9 -9 5 3 6 10 3 15 -9 13 -12 11 -12 -6z"/>
<path d="M4199 593 c-13 -16 -12 -17 4 -4 16 13 21 21 13 21 -2 0 -10 -8 -17
-17z"/>
<path d="M4406 598 c3 -4 9 -8 15 -8 5 0 9 4 9 8 0 5 -7 9 -15 9 -8 0 -12 -4
-9 -9z"/>
<path d="M4830 601 c0 -6 4 -13 10 -16 6 -3 7 1 4 9 -7 18 -14 21 -14 7z"/>
<path d="M3229 583 c-13 -16 -12 -17 4 -4 16 13 21 21 13 21 -2 0 -10 -8 -17
-17z"/>
<path d="M2575 579 c-3 -4 2 -6 10 -5 21 3 28 13 10 13 -9 0 -18 -4 -20 -8z"/>
<path d="M2755 580 c-3 -5 -1 -10 4 -10 6 0 11 5 11 10 0 6 -2 10 -4 10 -3 0
-8 -4 -11 -10z"/>
<path d="M2874 582 c4 -3 14 -7 22 -8 9 -1 13 0 10 4 -4 3 -14 7 -22 8 -9 1
-13 0 -10 -4z"/>
<path d="M3176 581 c-3 -5 1 -14 8 -20 10 -9 16 -9 21 -1 4 6 1 9 -7 8 -7 -2
-12 3 -10 10 2 14 -4 16 -12 3z"/>
<path d="M3841 576 c-9 -11 -9 -16 1 -22 7 -4 10 -4 6 1 -4 4 -3 14 3 22 6 7
9 13 6 13 -2 0 -10 -6 -16 -14z"/>
<path d="M5930 580 c0 -5 5 -10 11 -10 5 0 7 5 4 10 -3 6 -8 10 -11 10 -2 0
-4 -4 -4 -10z"/>
<path d="M1954 565 c-3 -8 -14 -17 -24 -20 -22 -7 -33 -32 -14 -32 7 0 11 4 9
8 -3 4 2 9 9 12 15 6 42 47 31 47 -3 0 -8 -7 -11 -15z"/>
<path d="M3039 578 c-5 -18 -6 -38 -1 -34 7 8 12 36 6 36 -2 0 -4 -1 -5 -2z"/>
<path d="M3773 565 c0 -8 3 -13 5 -10 3 3 12 -1 21 -7 10 -8 9 -4 -3 10 -23
26 -23 26 -23 7z"/>
<path d="M4338 569 c6 -9 8 -20 4 -24 -4 -5 -2 -5 5 -1 6 3 14 2 18 -4 7 -11
4 -12 -37 -14 -29 -2 -47 -12 -25 -14 57 -7 85 -7 81 0 -3 4 1 8 8 8 8 0 6 5
-5 11 -9 6 -15 15 -11 20 4 6 12 5 22 -2 11 -9 11 -6 -2 7 -14 14 -20 16 -23
6 -4 -10 -10 -9 -26 5 -15 12 -18 13 -9 2z"/>
<path d="M5816 567 c3 -10 9 -15 12 -12 3 3 0 11 -7 18 -10 9 -11 8 -5 -6z"/>
<path d="M3380 560 c-9 -6 -10 -10 -3 -10 6 0 15 5 18 10 8 12 4 12 -15 0z"/>
<path d="M3629 557 c6 -8 9 -16 6 -19 -3 -2 2 -5 10 -5 13 0 13 3 -2 19 -19
21 -31 25 -14 5z"/>
<path d="M3710 563 c0 -6 8 -17 18 -24 16 -13 16 -13 2 6 -8 11 -16 22 -17 24
-2 2 -3 0 -3 -6z"/>
<path d="M3861 554 c0 -11 3 -14 6 -6 3 7 2 16 -1 19 -3 4 -6 -2 -5 -13z"/>
<path d="M4260 566 c0 -2 8 -10 18 -17 15 -13 16 -12 3 4 -13 16 -21 21 -21
13z"/>
<path d="M4830 561 c0 -6 4 -13 10 -16 6 -3 7 1 4 9 -7 18 -14 21 -14 7z"/>
<path d="M6015 560 c3 -5 8 -10 11 -10 2 0 4 5 4 10 0 6 -5 10 -11 10 -5 0 -7
-4 -4 -10z"/>
<path d="M6290 559 c0 -5 5 -7 10 -4 6 3 10 8 10 11 0 2 -4 4 -10 4 -5 0 -10
-5 -10 -11z"/>
<path d="M3150 556 c0 -2 8 -10 18 -17 15 -13 16 -12 3 4 -13 16 -21 21 -21
13z"/>
<path d="M3200 540 c-9 -6 -10 -10 -3 -10 6 0 15 5 18 10 8 12 4 12 -15 0z"/>
<path d="M3596 542 c-3 -5 1 -9 9 -9 8 0 12 4 9 9 -3 4 -7 8 -9 8 -2 0 -6 -4
-9 -8z"/>
<path d="M3828 539 c6 -9 10 -18 7 -20 -2 -3 5 -5 15 -6 11 -1 20 3 20 9 0 6
-3 8 -7 5 -3 -4 -16 1 -27 10 -15 14 -18 14 -8 2z"/>
<path d="M3893 532 c-8 -14 -8 -19 1 -19 7 0 13 9 13 19 1 10 1 18 0 18 -1 0
-7 -8 -14 -18z"/>
<path d="M4650 539 c0 -5 5 -7 10 -4 6 3 10 8 10 11 0 2 -4 4 -10 4 -5 0 -10
-5 -10 -11z"/>
<path d="M4726 542 c-3 -5 1 -9 9 -9 8 0 12 4 9 9 -3 4 -7 8 -9 8 -2 0 -6 -4
-9 -8z"/>
<path d="M4775 540 c3 -5 8 -10 11 -10 2 0 4 5 4 10 0 6 -5 10 -11 10 -5 0 -7
-4 -4 -10z"/>
<path d="M4876 538 c3 -5 10 -6 15 -3 13 9 11 12 -6 12 -8 0 -12 -4 -9 -9z"/>
<path d="M5895 540 c3 -5 8 -10 11 -10 2 0 4 5 4 10 0 6 -5 10 -11 10 -5 0 -7
-4 -4 -10z"/>
<path d="M3690 536 c0 -2 8 -10 18 -17 15 -13 16 -12 3 4 -13 16 -21 21 -21
13z"/>
<path d="M3776 527 c3 -10 9 -15 12 -12 3 3 0 11 -7 18 -10 9 -11 8 -5 -6z"/>
<path d="M4415 531 c-3 -5 -2 -12 3 -15 5 -3 9 1 9 9 0 17 -3 19 -12 6z"/>
<path d="M1945 520 c-3 -6 1 -7 9 -4 18 7 21 14 7 14 -6 0 -13 -4 -16 -10z"/>
<path d="M3335 520 c3 -5 8 -10 11 -10 2 0 4 5 4 10 0 6 -5 10 -11 10 -5 0 -7
-4 -4 -10z"/>
<path d="M3810 510 c6 -11 13 -20 16 -20 2 0 0 9 -6 20 -6 11 -13 20 -16 20
-2 0 0 -9 6 -20z"/>
<path d="M3925 520 c3 -5 8 -10 11 -10 2 0 4 5 4 10 0 6 -5 10 -11 10 -5 0 -7
-4 -4 -10z"/>
<path d="M5830 521 c0 -6 4 -13 10 -16 6 -3 7 1 4 9 -7 18 -14 21 -14 7z"/>
<path d="M3594 495 c0 -14 2 -22 5 -20 2 3 11 -1 20 -7 12 -10 12 -7 -2 8 -9
11 -14 23 -11 26 3 3 1 8 -3 11 -5 3 -9 -5 -9 -18z"/>
<path d="M1955 501 c-3 -5 0 -13 6 -17 7 -4 9 -3 5 4 -3 5 0 13 6 15 9 4 10 6
1 6 -6 1 -14 -3 -18 -8z"/>
<path d="M1994 498 c-3 -5 0 -7 8 -6 7 2 12 -4 10 -12 -2 -8 0 -11 4 -7 14 13
12 34 -3 34 -7 0 -16 -4 -19 -9z"/>
<path d="M3359 493 c-12 -16 -12 -17 2 -6 9 7 20 9 24 5 5 -4 5 -1 1 6 -9 16
-11 15 -27 -5z"/>
<path d="M4175 500 c3 -5 8 -10 11 -10 2 0 4 5 4 10 0 6 -5 10 -11 10 -5 0 -7
-4 -4 -10z"/>
<path d="M4515 499 c-3 -4 2 -6 10 -5 21 3 28 13 10 13 -9 0 -18 -4 -20 -8z"/>
<path d="M4675 500 c-3 -5 -1 -10 4 -10 6 0 11 5 11 10 0 6 -2 10 -4 10 -3 0
-8 -4 -11 -10z"/>
<path d="M5954 502 c4 -3 14 -7 22 -8 9 -1 13 0 10 4 -4 3 -14 7 -22 8 -9 1
-13 0 -10 -4z"/>
<path d="M6030 500 c0 -5 5 -10 11 -10 5 0 7 5 4 10 -3 6 -8 10 -11 10 -2 0
-4 -4 -4 -10z"/>
<path d="M3130 496 c0 -2 8 -10 18 -17 15 -13 16 -12 3 4 -13 16 -21 21 -21
13z"/>
<path d="M2910 480 c0 -5 5 -10 11 -10 5 0 7 5 4 10 -3 6 -8 10 -11 10 -2 0
-4 -4 -4 -10z"/>
<path d="M4330 479 c0 -5 5 -7 10 -4 6 3 10 8 10 11 0 2 -4 4 -10 4 -5 0 -10
-5 -10 -11z"/>
<path d="M4361 476 c-9 -11 -9 -16 1 -22 7 -4 10 -4 6 1 -4 4 -3 14 3 22 6 7
9 13 6 13 -2 0 -10 -6 -16 -14z"/>
<path d="M1622 443 c-10 -4 -9 -9 5 -19 17 -13 17 -14 1 -8 -14 5 -18 1 -17
-17 0 -20 1 -21 8 -6 4 10 11 19 16 20 10 2 16 38 6 36 -3 0 -12 -3 -19 -6z"/>
<path d="M2386 434 c-3 -9 -11 -12 -18 -8 -14 9 11 -26 27 -38 14 -10 25 13
15 33 -5 9 -6 19 -3 23 3 3 2 6 -4 6 -6 0 -14 -7 -17 -16z m9 -14 c-3 -5 -1
-10 6 -10 7 0 10 -3 6 -6 -9 -9 -28 6 -22 17 4 5 8 9 11 9 3 0 2 -4 -1 -10z"/>
<path d="M3196 438 c3 -5 10 -6 15 -3 13 9 11 12 -6 12 -8 0 -12 -4 -9 -9z"/>
<path d="M3350 440 c0 -5 5 -10 11 -10 5 0 7 5 4 10 -3 6 -8 10 -11 10 -2 0
-4 -4 -4 -10z"/>
<path d="M3713 435 c0 -8 4 -12 9 -9 5 3 6 10 3 15 -9 13 -12 11 -12 -6z"/>
<path d="M6347 439 c7 -7 15 -10 18 -7 3 3 -2 9 -12 12 -14 6 -15 5 -6 -5z"/>
<path d="M1927 425 c6 -18 5 -19 -12 -5 -11 9 -16 10 -11 3 4 -8 2 -13 -4 -13
-7 0 -10 -7 -6 -17 5 -15 4 -15 -9 1 -8 11 -15 15 -15 10 0 -6 6 -16 13 -23
10 -11 9 -13 -3 -9 -8 3 -23 1 -33 -4 -14 -7 -16 -12 -7 -23 7 -8 8 -20 4 -27
-4 -7 -4 -10 1 -6 11 11 36 -12 28 -25 -3 -5 -1 -7 4 -4 6 4 13 -2 16 -13 3
-11 11 -20 17 -20 10 0 10 3 1 14 -10 12 -8 17 11 26 22 11 22 10 4 -4 -11 -9
-15 -16 -8 -16 6 0 21 8 32 17 15 13 17 20 8 31 -9 11 -9 13 3 12 29 -5 50 0
44 10 -4 6 -9 8 -13 6 -4 -2 -16 3 -27 11 -16 12 -16 14 -3 10 10 -3 20 -2 23
4 4 5 11 7 16 4 14 -9 11 5 -6 22 -8 8 -13 19 -10 24 4 5 1 9 -5 9 -7 0 -9 -8
-5 -20 5 -15 3 -18 -9 -14 -9 3 -13 11 -9 18 3 6 3 8 -2 4 -4 -4 -14 0 -22 10
-12 16 -13 15 -6 -3z m29 -33 c12 -6 25 -8 29 -4 5 4 5 1 1 -6 -4 -7 -12 -10
-17 -7 -5 4 -14 3 -20 -1 -8 -5 -4 -13 12 -26 13 -11 18 -17 12 -13 -22 11
-36 -5 -21 -23 9 -11 10 -14 1 -8 -7 4 -22 2 -34 -4 -16 -9 -24 -8 -40 6 -10
9 -16 20 -14 24 3 4 -3 11 -12 14 -15 6 -15 8 -3 16 9 5 19 5 24 0 9 -9 37 12
35 27 -4 24 10 26 47 5z"/>
<path d="M1918 388 c17 -17 -28 -50 -48 -35 -13 10 -13 10 -3 -4 7 -9 11 -18
8 -21 -3 -3 2 -11 12 -19 9 -8 14 -9 10 -3 -4 7 0 17 8 24 13 11 14 10 9 -4
-3 -9 -1 -16 5 -16 6 0 10 3 10 8 -4 21 2 32 14 26 9 -6 9 -5 0 7 -10 12 -10
18 -1 27 7 7 10 12 8 13 -3 0 -13 2 -24 4 -13 3 -16 1 -8 -7z m11 -31 c-2 -1
-15 -11 -29 -22 l-25 -20 19 23 c11 12 24 22 29 22 6 0 8 -1 6 -3z"/>
<path d="M3655 431 c-3 -5 -2 -12 3 -15 5 -3 9 1 9 9 0 17 -3 19 -12 6z"/>
<path d="M2050 419 c0 -5 5 -7 10 -4 6 3 10 8 10 11 0 2 -4 4 -10 4 -5 0 -10
-5 -10 -11z"/>
<path d="M3766 422 c-3 -5 1 -9 9 -9 8 0 12 4 9 9 -3 4 -7 8 -9 8 -2 0 -6 -4
-9 -8z"/>
<path d="M4074 422 c4 -3 14 -7 22 -8 9 -1 13 0 10 4 -4 3 -14 7 -22 8 -9 1
-13 0 -10 -4z"/>
<path d="M4136 421 c9 -9 34 -9 34 -1 0 5 -9 8 -20 7 -10 -1 -17 -3 -14 -6z"/>
<path d="M4274 422 c4 -3 14 -7 22 -8 9 -1 13 0 10 4 -4 3 -14 7 -22 8 -9 1
-13 0 -10 -4z"/>
<path d="M2016 375 c-3 -9 -10 -14 -15 -10 -5 3 -12 2 -15 -3 -2 -4 4 -8 14
-9 17 -1 36 24 26 34 -2 2 -6 -3 -10 -12z"/>
<path d="M2040 360 c-9 -6 -10 -10 -3 -10 6 0 15 5 18 10 8 12 4 12 -15 0z"/>
<path d="M749 348 c-6 -22 -4 -50 4 -55 6 -3 7 -1 3 5 -7 11 7 16 44 13 12 0
12 1 1 6 -11 4 -11 7 0 14 9 6 10 9 2 9 -6 0 -15 -4 -18 -10 -3 -5 -11 -10
-16 -10 -6 0 -8 4 -4 9 3 5 1 12 -5 16 -5 3 -10 5 -11 3z"/>
<path d="M580 330 c-8 -5 -10 -10 -5 -10 6 0 17 5 25 10 8 5 11 10 5 10 -5 0
-17 -5 -25 -10z"/>
<path d="M710 315 c-11 -13 -10 -14 4 -9 9 3 16 10 16 15 0 13 -6 11 -20 -6z"/>
<path d="M2996 282 c-3 -5 1 -9 9 -9 8 0 12 4 9 9 -3 4 -7 8 -9 8 -2 0 -6 -4
-9 -8z"/>
<path d="M5085 250 c3 -5 -1 -11 -7 -14 -7 -2 -3 -4 9 -2 31 3 38 12 13 19
-11 3 -18 1 -15 -3z"/>
</g>
</svg>
