<?xml version="1.0" encoding="UTF-8" standalone="no"?>
<!-- Created with Inkscape (http://www.inkscape.org/) -->

<svg
   xmlns:dc="http://purl.org/dc/elements/1.1/"
   xmlns:cc="http://creativecommons.org/ns#"
   xmlns:rdf="http://www.w3.org/1999/02/22-rdf-syntax-ns#"
   xmlns:svg="http://www.w3.org/2000/svg"
   xmlns="http://www.w3.org/2000/svg"
   xmlns:xlink="http://www.w3.org/1999/xlink"
   xmlns:sodipodi="http://sodipodi.sourceforge.net/DTD/sodipodi-0.dtd"
   xmlns:inkscape="http://www.inkscape.org/namespaces/inkscape"
   width="23.225mm"
   height="23.225mm"
   viewBox="0 0 23.225 23.225"
   version="1.1"
   id="svg8"
   inkscape:version="0.92.4 5da689c313, 2019-01-14"
   sodipodi:docname="icon.svg">
  <defs
     id="defs2">
    <linearGradient
       inkscape:collect="always"
       id="linearGradient6715">
      <stop
         style="stop-color:#999999;stop-opacity:1"
         offset="0"
         id="stop6711" />
      <stop
         id="stop6719"
         offset="0.31578952"
         style="stop-color:#cccccc;stop-opacity:1" />
      <stop
         style="stop-color:#e6e6e6;stop-opacity:1"
         offset="1"
         id="stop6713" />
    </linearGradient>
    <filter
       style="color-interpolation-filters:sRGB"
       inkscape:label="Frost"
       id="filter6899"
       inkscape:menu="Overlays"
       inkscape:menu-tooltip="Flake-like white splotches">
      <feFlood
         flood-opacity="0.196078"
         flood-color="rgb(0,0,0)"
         result="flood"
         id="feFlood6889" />
      <feComposite
         in="flood"
         in2="SourceGraphic"
         operator="in"
         result="composite1"
         id="feComposite6891" />
      <feGaussianBlur
         in="composite1"
         stdDeviation="3"
         result="blur"
         id="feGaussianBlur6893" />
      <feOffset
         dx="1"
         dy="1"
         result="offset"
         id="feOffset6895" />
      <feComposite
         in="SourceGraphic"
         in2="offset"
         operator="over"
         result="fbSourceGraphic"
         id="feComposite6897" />
      <feColorMatrix
         result="fbSourceGraphicAlpha"
         in="fbSourceGraphic"
         values="0 0 0 -1 0 0 0 0 -1 0 0 0 0 -1 0 0 0 0 1 0"
         id="feColorMatrix8080" />
      <feTurbulence
         id="feTurbulence8082"
         type="fractalNoise"
         numOctaves="5"
         baseFrequency="0.143" />
      <feColorMatrix
         id="feColorMatrix8084"
         values="1 0 0 0 0 0 1 0 0 0 0 0 1 0 0 0 0 0 5 -3"
         result="result1" />
      <feComposite
         in2="fbSourceGraphicAlpha"
         id="feComposite8086"
         operator="in" />
      <feMorphology
         id="feMorphology8088"
         operator="dilate"
         radius="2.7"
         result="result3" />
      <feTurbulence
         id="feTurbulence8090"
         numOctaves="2"
         baseFrequency="0.121"
         result="result91" />
      <feDisplacementMap
         in2="result91"
         id="feDisplacementMap8092"
         in="result3"
         xChannelSelector="R"
         yChannelSelector="A"
         scale="10"
         result="result4" />
      <feFlood
         id="feFlood8094"
         flood-opacity="1"
         flood-color="rgb(255,255,255)"
         result="result92" />
      <feComposite
         in2="result4"
         id="feComposite8096"
         result="result2"
         operator="in" />
      <feComposite
         in2="fbSourceGraphic"
         id="feComposite8098"
         in="result2"
         operator="over" />
    </filter>
    <linearGradient
       inkscape:collect="always"
       xlink:href="#linearGradient6715"
       id="linearGradient7959"
       gradientUnits="userSpaceOnUse"
       x1="21.166666"
       y1="115.76041"
       x2="46.302082"
       y2="115.76041"
       spreadMethod="reflect"
       gradientTransform="matrix(3.7795276,0,0,3.7795276,-136.08793,-400.13906)" />
  </defs>
  <sodipodi:namedview
     id="base"
     pagecolor="#ffffff"
     bordercolor="#666666"
     borderopacity="1.0"
     inkscape:pageopacity="0.0"
     inkscape:pageshadow="2"
     inkscape:zoom="5.6568542"
     inkscape:cx="-9.6124482"
     inkscape:cy="52.382157"
     inkscape:document-units="mm"
     inkscape:current-layer="layer1"
     showgrid="true"
     showguides="true"
     inkscape:guide-bbox="true"
     fit-margin-top="0.5"
     fit-margin-left="0.5"
     fit-margin-right="0.5"
     fit-margin-bottom="0.5"
     inkscape:window-width="1920"
     inkscape:window-height="1018"
     inkscape:window-x="0"
     inkscape:window-y="0"
     inkscape:window-maximized="1">
    <inkscape:grid
       type="xygrid"
       id="grid4982"
       originx="-104.80417"
       originy="-116.71023" />
    <sodipodi:guide
       position="48.654165,55.268946"
       orientation="0,1"
       id="guide8064"
       inkscape:locked="false" />
    <sodipodi:guide
       position="55.268749,93.63353"
       orientation="1,0"
       id="guide8066"
       inkscape:locked="false" />
    <sodipodi:guide
       position="4.9979132,20.87311"
       orientation="0,1"
       id="guide8104"
       inkscape:locked="false" />
    <sodipodi:guide
       position="2.35208,19.550193"
       orientation="1,0"
       id="guide846"
       inkscape:locked="false" />
    <sodipodi:guide
       position="20.872913,14.258527"
       orientation="1,0"
       id="guide848"
       inkscape:locked="false" />
    <sodipodi:guide
       position="8.9666635,2.352277"
       orientation="0,1"
       id="guide850"
       inkscape:locked="false" />
  </sodipodi:namedview>
  <metadata
     id="metadata5">
    <rdf:RDF>
      <cc:Work
         rdf:about="">
        <dc:format>image/svg+xml</dc:format>
        <dc:type
           rdf:resource="http://purl.org/dc/dcmitype/StillImage" />
        <dc:title></dc:title>
      </cc:Work>
    </rdf:RDF>
  </metadata>
  <g
     inkscape:label="Layer 1"
     inkscape:groupmode="layer"
     id="layer1"
     transform="translate(-104.80417,-157.06477)">
    <path
       style="fill:#e270aa;fill-opacity:1;stroke:none;stroke-width:1.61007857;stroke-miterlimit:4;stroke-dasharray:none;stroke-opacity:1;filter:url(#filter6899)"
       d="m 204.08789,191.5293 a 20.480078,20.480078 0 0 0 -1.44922,0.0508 20.480078,20.480078 0 0 0 -2.0332,0.24609 20.480078,20.480078 0 0 0 -1.99609,0.44922 20.480078,20.480078 0 0 0 -1.94336,0.64453 20.480078,20.480078 0 0 0 -1.86914,0.83594 20.480078,20.480078 0 0 0 -1.7754,1.01953 20.480078,20.480078 0 0 0 -1.66406,1.19141 20.480078,20.480078 0 0 0 -1.53906,1.34961 20.480078,20.480078 0 0 0 -1.39453,1.49804 20.480078,20.480078 0 0 0 -1.24024,1.63086 20.480078,20.480078 0 0 0 -1.06836,1.74414 20.480078,20.480078 0 0 0 -0.89062,1.84375 20.480078,20.480078 0 0 0 -0.70313,1.92383 20.480078,20.480078 0 0 0 -0.50586,1.98242 20.480078,20.480078 0 0 0 -0.30664,2.02539 20.480078,20.480078 0 0 0 -0.10156,2.04297 20.480078,20.480078 0 0 0 0.0508,1.44922 20.480078,20.480078 0 0 0 0.2461,2.0332 20.480078,20.480078 0 0 0 0.44922,1.9961 20.480078,20.480078 0 0 0 0.64648,1.94336 20.480078,20.480078 0 0 0 0.83594,1.86914 20.480078,20.480078 0 0 0 1.01758,1.77539 20.480078,20.480078 0 0 0 1.1914,1.66601 20.480078,20.480078 0 0 0 1.35156,1.53711 20.480078,20.480078 0 0 0 1.49805,1.39454 20.480078,20.480078 0 0 0 1.62891,1.24023 20.480078,20.480078 0 0 0 1.74609,1.07031 20.480078,20.480078 0 0 0 1.8418,0.89063 20.480078,20.480078 0 0 0 1.92383,0.70117 20.480078,20.480078 0 0 0 1.98242,0.50586 20.480078,20.480078 0 0 0 2.02539,0.30664 20.480078,20.480078 0 0 0 2.04492,0.10156 20.480078,20.480078 0 0 0 1.44727,-0.0508 20.480078,20.480078 0 0 0 2.0332,-0.24609 20.480078,20.480078 0 0 0 1.99805,-0.44922 20.480078,20.480078 0 0 0 1.9414,-0.64453 20.480078,20.480078 0 0 0 1.86914,-0.83789 20.480078,20.480078 0 0 0 1.77539,-1.01758 20.480078,20.480078 0 0 0 1.66602,-1.19141 20.480078,20.480078 0 0 0 1.53711,-1.35156 20.480078,20.480078 0 0 0 1.39648,-1.4961 20.480078,20.480078 0 0 0 1.23828,-1.63085 20.480078,20.480078 0 0 0 1.07032,-1.74415 20.480078,20.480078 0 0 0 0.89062,-1.84374 20.480078,20.480078 0 0 0 0.70117,-1.92383 20.480078,20.480078 0 0 0 0.50586,-1.98243 20.480078,20.480078 0 0 0 0.30664,-2.02539 20.480078,20.480078 0 0 0 0.10157,-2.04492 20.480078,20.480078 0 0 0 -0.0508,-1.44726 20.480078,20.480078 0 0 0 -0.24609,-2.03321 20.480078,20.480078 0 0 0 -0.44922,-1.99804 20.480078,20.480078 0 0 0 -0.64453,-1.94141 20.480078,20.480078 0 0 0 -0.83594,-1.86914 20.480078,20.480078 0 0 0 -1.01953,-1.77539 20.480078,20.480078 0 0 0 -1.1914,-1.66602 20.480078,20.480078 0 0 0 -1.34961,-1.53711 20.480078,20.480078 0 0 0 -1.49805,-1.39648 20.480078,20.480078 0 0 0 -1.63086,-1.23828 20.480078,20.480078 0 0 0 -1.74414,-1.07031 20.480078,20.480078 0 0 0 -1.84375,-0.89063 20.480078,20.480078 0 0 0 -1.92383,-0.70117 20.480078,20.480078 0 0 0 -1.98242,-0.50586 20.480078,20.480078 0 0 0 -2.02344,-0.30664 20.480078,20.480078 0 0 0 -2.04492,-0.10156 z"
       id="path8070"
       transform="matrix(0.26458333,0,0,0.26458333,62.418413,112.70995)"
       inkscape:connector-curvature="0" />
    <path
       style="fill:url(#linearGradient7959);fill-opacity:1;stroke:none;stroke-width:1.61007857;stroke-miterlimit:4;stroke-dasharray:none;stroke-opacity:1;filter:url(#filter6899)"
       d="M 4,1.8769531 V 71.876953 H 74 V 1.8769531 Z M 39,16.876953 a 20.480078,20.480078 0 0 1 2.044922,0.101563 20.480078,20.480078 0 0 1 2.023437,0.30664 20.480078,20.480078 0 0 1 1.982422,0.50586 20.480078,20.480078 0 0 1 1.923828,0.701172 20.480078,20.480078 0 0 1 1.84375,0.890624 20.480078,20.480078 0 0 1 1.744141,1.070313 20.480078,20.480078 0 0 1 1.630859,1.238281 20.480078,20.480078 0 0 1 1.498047,1.396485 20.480078,20.480078 0 0 1 1.34961,1.537109 20.480078,20.480078 0 0 1 1.191406,1.666016 20.480078,20.480078 0 0 1 1.019531,1.77539 20.480078,20.480078 0 0 1 0.835938,1.869141 20.480078,20.480078 0 0 1 0.644531,1.941406 20.480078,20.480078 0 0 1 0.449219,1.998047 20.480078,20.480078 0 0 1 0.246093,2.033203 20.480078,20.480078 0 0 1 0.05078,1.447266 20.480078,20.480078 0 0 1 -0.101563,2.044922 20.480078,20.480078 0 0 1 -0.306641,2.02539 20.480078,20.480078 0 0 1 -0.505859,1.982422 20.480078,20.480078 0 0 1 -0.701172,1.923828 20.480078,20.480078 0 0 1 -0.890625,1.84375 20.480078,20.480078 0 0 1 -1.070312,1.744141 20.480078,20.480078 0 0 1 -1.238282,1.630859 20.480078,20.480078 0 0 1 -1.396484,1.496094 20.480078,20.480078 0 0 1 -1.537109,1.351563 20.480078,20.480078 0 0 1 -1.666016,1.191406 20.480078,20.480078 0 0 1 -1.775391,1.017578 20.480078,20.480078 0 0 1 -1.86914,0.83789 20.480078,20.480078 0 0 1 -1.941406,0.644532 20.480078,20.480078 0 0 1 -1.998047,0.449218 20.480078,20.480078 0 0 1 -2.033203,0.246094 A 20.480078,20.480078 0 0 1 39,57.835938 20.480078,20.480078 0 0 1 36.955078,57.734375 20.480078,20.480078 0 0 1 34.929688,57.427734 20.480078,20.480078 0 0 1 32.947266,56.921875 20.480078,20.480078 0 0 1 31.023438,56.220703 20.480078,20.480078 0 0 1 29.181641,55.330078 20.480078,20.480078 0 0 1 27.435547,54.259766 20.480078,20.480078 0 0 1 25.806641,53.019531 20.480078,20.480078 0 0 1 24.308594,51.625 a 20.480078,20.480078 0 0 1 -1.351563,-1.537109 20.480078,20.480078 0 0 1 -1.191406,-1.666016 20.480078,20.480078 0 0 1 -1.017578,-1.775391 20.480078,20.480078 0 0 1 -0.835938,-1.86914 20.480078,20.480078 0 0 1 -0.646484,-1.94336 20.480078,20.480078 0 0 1 -0.449219,-1.996093 20.480078,20.480078 0 0 1 -0.246094,-2.033203 20.480078,20.480078 0 0 1 -0.05078,-1.449219 20.480078,20.480078 0 0 1 0.101563,-2.042969 20.480078,20.480078 0 0 1 0.30664,-2.025391 20.480078,20.480078 0 0 1 0.50586,-1.982421 20.480078,20.480078 0 0 1 0.703125,-1.923829 20.480078,20.480078 0 0 1 0.890625,-1.84375 20.480078,20.480078 0 0 1 1.068359,-1.74414 20.480078,20.480078 0 0 1 1.240235,-1.63086 20.480078,20.480078 0 0 1 1.394531,-1.498047 20.480078,20.480078 0 0 1 1.539062,-1.349609 20.480078,20.480078 0 0 1 1.664063,-1.191406 20.480078,20.480078 0 0 1 1.77539,-1.019531 20.480078,20.480078 0 0 1 1.869141,-0.835938 20.480078,20.480078 0 0 1 1.943359,-0.644531 20.480078,20.480078 0 0 1 1.996094,-0.449219 20.480078,20.480078 0 0 1 2.033203,-0.246094 A 20.480078,20.480078 0 0 1 39,16.876953 Z"
       transform="matrix(0.26458333,0,0,0.26458333,106.09792,158.92024)"
       id="rect4977"
       inkscape:connector-curvature="0" />
  </g>
</svg>
