<?xml version="1.0" standalone="no"?>
<!DOCTYPE svg PUBLIC "-//W3C//DTD SVG 20010904//EN"
 "http://www.w3.org/TR/2001/REC-SVG-20010904/DTD/svg10.dtd">
<svg version="1.0" xmlns="http://www.w3.org/2000/svg"
 width="700.000000pt" height="700.000000pt" viewBox="0 0 700.000000 700.000000"
 preserveAspectRatio="xMidYMid meet">
<metadata>
Created by potrace 1.11, written by Peter Selinger 2001-2013
</metadata>
<g transform="translate(0.000000,700.000000) scale(0.100000,-0.100000)"
fill="#000000" stroke="none">
<path d="M0 3500 l0 -3500 3500 0 3500 0 0 3500 0 3500 -3500 0 -3500 0 0
-3500z m3733 1933 c-18 -2 -48 -2 -65 0 -18 2 -4 4 32 4 36 0 50 -2 33 -4z
m90 -10 c-7 -2 -19 -2 -25 0 -7 3 -2 5 12 5 14 0 19 -2 13 -5z m-628 -38
c-213 -50 -411 -131 -588 -243 -53 -33 -97 -59 -97 -56 0 12 184 122 283 169
159 75 405 154 477 154 14 0 -20 -11 -75 -24z m1115 -76 c71 -27 240 -112 310
-156 60 -38 240 -173 240 -180 0 -6 -6 -2 -129 90 -115 87 -270 174 -415 233
-89 36 -94 46 -6 13z m-2182 -594 c-28 -36 -54 -65 -56 -65 -5 0 6 14 61 83
21 26 41 47 43 47 3 0 -19 -29 -48 -65z m-58 -79 c0 -2 -8 -10 -17 -17 -16
-13 -17 -12 -4 4 13 16 21 21 21 13z m-42 -58 c-8 -13 -27 -44 -42 -70 -15
-27 -30 -48 -33 -48 -5 0 -5 0 41 78 21 34 40 62 43 62 3 0 -1 -10 -9 -22z
m-85 -143 c-3 -9 -8 -14 -10 -11 -3 3 -2 9 2 15 9 16 15 13 8 -4z m-30 -60
c-9 -19 -18 -33 -21 -31 -4 5 26 66 33 66 3 0 -3 -16 -12 -35z m-47 -106 c-14
-30 -25 -50 -25 -46 -1 12 41 108 45 104 3 -2 -7 -28 -20 -58z m-50 -135 c-14
-38 -25 -64 -25 -58 -1 15 40 136 45 131 2 -2 -7 -35 -20 -73z m-45 -159 c-11
-38 -20 -64 -20 -57 -1 19 32 148 36 137 1 -6 -6 -41 -16 -80z m3696 -47 c-3
-7 -5 -2 -5 12 0 14 2 19 5 13 2 -7 2 -19 0 -25z m10 -50 c-3 -7 -5 -2 -5 12
0 14 2 19 5 13 2 -7 2 -19 0 -25z m-3730 -15 c-3 -10 -5 -4 -5 12 0 17 2 24 5
18 2 -7 2 -21 0 -30z m3740 -50 c-3 -10 -5 -2 -5 17 0 19 2 27 5 18 2 -10 2
-26 0 -35z m-3750 -20 c-3 -10 -5 -2 -5 17 0 19 2 27 5 18 2 -10 2 -26 0 -35z
m3760 -55 c-2 -13 -4 -5 -4 17 -1 22 1 32 4 23 2 -10 2 -28 0 -40z m-3770 -35
c-2 -16 -4 -5 -4 22 0 28 2 40 4 28 2 -13 2 -35 0 -50z m3780 -235 c-1 -46 -3
-11 -3 77 0 88 2 125 3 83 2 -42 2 -114 0 -160z m-3790 115 c-2 -16 -4 -3 -4
27 0 30 2 43 4 28 2 -16 2 -40 0 -55z m3780 -280 c-3 -10 -5 -2 -5 17 0 19 2
27 5 18 2 -10 2 -26 0 -35z m-3760 -35 c-3 -8 -6 -5 -6 6 -1 11 2 17 5 13 3
-3 4 -12 1 -19z m20 -120 c-3 -8 -6 -5 -6 6 -1 11 2 17 5 13 3 -3 4 -12 1 -19z
m21 -83 c0 -16 -2 -15 -8 5 -4 14 -8 34 -8 45 0 16 2 15 8 -5 4 -14 8 -34 8
-45z m3053 -979 c-22 -24 -149 -117 -206 -151 -52 -32 -13 0 66 54 42 29 94
67 115 86 46 40 57 45 25 11z m-2380 -43 c13 -16 12 -17 -3 -4 -10 7 -18 15
-18 17 0 8 8 3 21 -13z m184 -126 c15 -15 -64 32 -117 71 -27 18 -48 36 -48
38 0 5 150 -94 165 -109z m1955 -2 c0 -2 -10 -9 -22 -15 -22 -11 -22 -10 -4 4
21 17 26 19 26 11z m-70 -40 c0 -13 -276 -135 -304 -135 -6 1 36 20 94 44 58
23 128 54 155 69 56 29 55 29 55 22z m-1433 -151 c30 -9 53 -18 50 -20 -2 -2
-30 4 -63 15 -72 23 -63 27 13 5z m1068 -4 c-27 -10 -59 -19 -70 -19 -11 0 5
8 35 19 72 24 100 24 35 0z m-98 -26 c-3 -3 -12 -4 -19 -1 -8 3 -5 6 6 6 11 1
17 -2 13 -5z m-782 -14 c27 -7 27 -8 5 -8 -14 0 -38 4 -55 8 -27 7 -27 8 -5 8
14 0 39 -4 55 -8z m738 3 c-7 -2 -19 -2 -25 0 -7 3 -2 5 12 5 14 0 19 -2 13
-5z m-50 -10 c-7 -2 -19 -2 -25 0 -7 3 -2 5 12 5 14 0 19 -2 13 -5z m-605 -10
c-10 -2 -26 -2 -35 0 -10 3 -2 5 17 5 19 0 27 -2 18 -5z m545 0 c-7 -2 -21 -2
-30 0 -10 3 -4 5 12 5 17 0 24 -2 18 -5z m-460 -10 c-13 -2 -33 -2 -45 0 -13
2 -3 4 22 4 25 0 35 -2 23 -4z m385 0 c-10 -2 -28 -2 -40 0 -13 2 -5 4 17 4
22 1 32 -1 23 -4z m-156 -10 c-40 -2 -103 -2 -140 0 -37 2 -4 3 73 3 77 0 107
-2 67 -3z"/>
</g>
</svg>
